<?xml version="1.0" encoding="UTF-8" ?>
<!DOCTYPE svg PUBLIC "-//W3C//DTD SVG 1.1//EN" "http://www.w3.org/Graphics/SVG/1.1/DTD/svg11.dtd">
<svg width="60pt" height="40pt"  version="1.1" xmlns="http://www.w3.org/2000/svg">

<g id="v"  class="ac">


<metadata class="part" >
<wtx:part xmlns:wtx="http://code.google.com/p/webtronics" >
    <wtx:pins>
    <wtx:analog>
                <wtx:node index="1" x="0" y="20"/>
                <wtx:node index="2" x="60" y="20"/>
    </wtx:analog>
    </wtx:pins>
    <wtx:id>v</wtx:id>
    <wtx:type>v</wtx:type>
    <wtx:name>ac</wtx:name>
    <wtx:category>sources</wtx:category>
    <wtx:value></wtx:value>
    <wtx:amplitude></wtx:amplitude>
    <wtx:phase></wtx:phase>
    <wtx:label></wtx:label>
    <wtx:spice></wtx:spice>
    <wtx:flip></wtx:flip>
    <wtx:model></wtx:model>
</wtx:part>
</metadata>



<path fill="#ffffff" d=" M 0.00 0.00 L 60.00 0.00 L 60.00 18.92 C 56.43 18.92 52.87 18.89 49.31 18.96 C 48.41 13.74 45.89 8.64 41.32 5.69 C 33.28 -0.05 21.18 1.19 14.58 8.58 C 11.86 11.37 10.75 15.20 9.91 18.90 C 6.61 18.91 3.31 18.91 0.01 18.92 L 0.00 18.02 L 0.00 0.00 Z" />
<path fill="#242223" d=" M 14.58 8.58 C 21.18 1.19 33.28 -0.05 41.32 5.69 C 45.89 8.64 48.41 13.74 49.31 18.96 C 52.87 18.89 56.43 18.92 60.00 18.92 L 60.00 20.36 C 56.44 20.37 52.88 20.42 49.32 20.35 C 48.37 25.00 46.49 29.68 42.57 32.61 C 34.59 39.35 21.31 38.48 14.46 30.51 C 11.81 27.77 10.77 24.01 9.90 20.41 C 6.60 20.40 3.30 20.40 0.00 20.40 L 0.00 18.02 L 0.01 18.92 C 3.31 18.91 6.61 18.91 9.91 18.90 C 10.75 15.20 11.86 11.37 14.58 8.58 Z" />
<path fill="#ffffff" d=" M 16.79 8.70 C 24.26 1.38 38.00 2.26 44.27 10.71 C 46.12 13.28 47.66 16.48 46.84 19.71 C 47.83 25.27 43.64 30.47 39.04 33.09 C 30.82 38.00 18.81 35.44 13.93 27.02 C 10.46 21.21 11.70 13.17 16.79 8.70 Z" />
<path fill="#242223" d=" M 35.50 14.74 L 37.09 14.62 C 37.08 16.05 37.08 17.47 37.07 18.89 C 38.40 18.90 39.74 18.91 41.07 18.92 L 41.06 20.37 C 39.72 20.39 38.38 20.42 37.04 20.44 C 37.06 22.02 37.09 23.59 37.10 25.17 L 35.52 25.19 C 35.49 23.60 35.48 22.02 35.47 20.43 C 34.22 20.42 32.96 20.40 31.71 20.39 L 31.56 18.91 C 32.86 18.91 34.16 18.91 35.46 18.90 C 35.47 17.51 35.48 16.12 35.50 14.74 Z" />
<path fill="#ffffff" d=" M 49.32 20.35 C 52.88 20.42 56.44 20.37 60.00 20.36 L 60.00 40.00 L 0.00 40.00 L 0.00 20.40 C 3.30 20.40 6.60 20.40 9.90 20.41 C 10.77 24.01 11.81 27.77 14.46 30.51 C 21.31 38.48 34.59 39.35 42.57 32.61 C 46.49 29.68 48.37 25.00 49.32 20.35 Z" />
</g>
</svg>
