<?xml version="1.0" encoding="UTF-8" standalone="no"?>
<svg
   xmlns:wtx="http://code.google.com/p/webtronics"
   xmlns:dc="http://purl.org/dc/elements/1.1/"
   xmlns:cc="http://creativecommons.org/ns#"
   xmlns:rdf="http://www.w3.org/1999/02/22-rdf-syntax-ns#"
   xmlns:svg="http://www.w3.org/2000/svg"
   xmlns="http://www.w3.org/2000/svg"
   xmlns:sodipodi="http://sodipodi.sourceforge.net/DTD/sodipodi-0.dtd"
   xmlns:inkscape="http://www.inkscape.org/namespaces/inkscape"
   width="60pt"
   height="40pt"
   version="1.1"
   id="svg2"
   inkscape:version="0.48.3.1 r9886"
   sodipodi:docname="pulse_old.svg">
  <metadata
     id="metadata27">
    <rdf:RDF>
      <cc:Work
         rdf:about="">
        <dc:format>image/svg+xml</dc:format>
        <dc:type
           rdf:resource="http://purl.org/dc/dcmitype/StillImage" />
      </cc:Work>
    </rdf:RDF>
  </metadata>
  <defs
     id="defs25" />
  <sodipodi:namedview
     pagecolor="#ffffff"
     bordercolor="#666666"
     borderopacity="1"
     objecttolerance="10"
     gridtolerance="10"
     guidetolerance="10"
     inkscape:pageopacity="0"
     inkscape:pageshadow="2"
     inkscape:window-width="640"
     inkscape:window-height="480"
     id="namedview23"
     showgrid="false"
     inkscape:zoom="3.8933333"
     inkscape:cx="37.5"
     inkscape:cy="25"
     inkscape:window-x="65"
     inkscape:window-y="24"
     inkscape:window-maximized="0"
     inkscape:current-layer="Pulse" />
  <g
     id="Pulse"
     class="pulse">
    <!--
    pulval1=Initial Value
    pulval2=Pulse Value
    pulval3=Delay Time
    pulval4=Rise Time
    pulval5=Fall Time
    pulval6=Pulse Period
    pulval7=Pulse Width
    -->
    <metadata
       class="part"
       id="metadata5">
      <wtx:part>
        <wtx:pins>
          <wtx:analog>
            <wtx:node
               index="1"
               x="0"
               y="20" />
            <wtx:node
               index="2"
               x="60"
               y="20" />
          </wtx:analog>
        </wtx:pins>
        <wtx:id>p</wtx:id>
        <wtx:type>v</wtx:type>
        <wtx:name>pulse</wtx:name>
        <wtx:category>sources</wtx:category>
        <wtx:value />
        <wtx:pulval1 />
        <wtx:pulval2 />
        <wtx:pulval3 />
        <wtx:pulval4 />
        <wtx:pulval5 />
        <wtx:pulval6 />
        <wtx:pulval7 />
        <wtx:label />
        <wtx:spice />
        <wtx:flip />
        <wtx:model />
      </wtx:part>
    </metadata>
    <path
       fill="#ffffff"
       d=" M 0.00 0.00 L 60.00 0.00 L 60.00 19.01 C 55.73 18.96 51.45 19.03 47.18 19.00 C 46.09 14.57 44.71 9.96 41.21 6.80 C 36.79 3.19 30.59 0.79 25.00 2.91 C 17.49 4.65 12.99 11.79 11.82 19.00 C 7.88 19.04 3.94 18.96 0.00 19.01 L 0.00 0.00 Z"
       id="path7" />
    <path
       fill="#000000"
       d=" M 25.00 2.91 C 30.59 0.79 36.79 3.19 41.21 6.80 C 44.71 9.96 46.09 14.57 47.18 19.00 C 51.45 19.03 55.73 18.96 60.00 19.01 L 60.00 20.99 C 55.72 21.04 51.45 20.96 47.17 21.01 C 46.10 25.43 44.71 30.01 41.24 33.17 C 36.79 36.83 30.53 39.22 24.89 37.06 C 17.45 35.29 12.98 28.18 11.83 21.01 C 7.89 20.96 3.94 21.04 0.00 20.99 L 0.00 19.01 C 3.94 18.96 7.88 19.04 11.82 19.00 C 12.99 11.79 17.49 4.65 25.00 2.91 Z"
       id="path9" />
    <path
       fill="#ffffff"
       d=" M 28.28 3.12 C 32.70 2.89 37.16 4.62 40.61 7.38 C 46.36 12.95 47.67 22.51 43.22 29.26 C 40.47 34.30 34.56 36.58 29.11 37.01 C 24.19 36.26 18.84 34.38 16.19 29.87 C 10.56 22.21 12.89 9.85 21.42 5.34 C 23.47 3.99 25.97 3.79 28.28 3.12 Z"
       id="path11" />
    <path
       fill="#000000"
       d=" M 23.12 11.34 C 23.59 12.48 23.99 13.65 24.29 14.85 C 27.21 15.20 30.03 16.16 33.00 16.15 C 33.00 19.05 33.00 21.95 33.00 24.85 C 30.03 24.84 27.21 25.79 24.29 26.15 C 23.99 27.35 23.60 28.51 23.11 29.65 C 22.99 28.15 22.93 26.65 22.94 25.14 C 26.03 25.17 28.96 24.16 32.00 23.78 C 32.01 21.59 32.01 19.41 32.00 17.22 C 28.96 16.83 26.03 15.83 22.94 15.86 C 22.93 14.35 22.99 12.84 23.12 11.34 Z"
       id="path13" />
    <path
       d="m 14.37726,20.34 c 2.74,-0.2 1.72,-3.23 2.85,-4.94 0.19,1.53 0.27,3.07 0.24,4.61 1.32,-0.01 2.63,-0.01 3.94,-0.01 l 0,1 c -1.3,0 -2.6,0 -3.9,0 -0.05,0.89 -0.14,2.68 -0.19,3.58 -0.72,-1.61 -1.2,-3.44 -2.94,-4.24 z"
       id="path15"
       inkscape:connector-curvature="0"
       style="fill:#000000" />
    <path
       d="m 40.34589,15.192055 1,0 c 0.01,2.67 0.01,5.35 0,8.02 l -1,0 c -0.01,-2.67 -0.01,-5.35 0,-8.02 z"
       id="path17"
       inkscape:connector-curvature="0"
       style="fill:#000000" />
    <path
       fill="#ffffff"
       d=" M 0.00 20.99 C 3.94 21.04 7.89 20.96 11.83 21.01 C 12.98 28.18 17.45 35.29 24.89 37.06 C 30.53 39.22 36.79 36.83 41.24 33.17 C 44.71 30.01 46.10 25.43 47.17 21.01 C 51.45 20.96 55.72 21.04 60.00 20.99 L 60.00 40.00 L 25.85 40.00 C 27.24 37.91 23.78 37.85 25.01 40.00 L 0.00 40.00 L 0.00 20.99 Z"
       id="path19" />
    <path
       fill="#000000"
       d=" M 25.01 40.00 C 23.78 37.85 27.24 37.91 25.85 40.00 L 25.01 40.00 Z"
       id="path21" />
  </g>
</svg>
