<?xml version="1.0" encoding="UTF-8" ?>
<!DOCTYPE svg PUBLIC "-//W3C//DTD SVG 1.1//EN" "http://www.w3.org/Graphics/SVG/1.1/DTD/svg11.dtd">
<svg width="60pt" height="40pt"  version="1.1" xmlns="http://www.w3.org/2000/svg">

<g id="Exp"   class="exponential">


<!--
    eval1=Initial Value
    eval2=Pulse Value
    eval3=Rise Time Delay
    eval4=Rise Time Constant
    eval5=Fall Time Delay
    eval6=Fall Time Constant
 -->

    
<metadata class="part" >
<wtx:part xmlns:wtx="http://code.google.com/p/webtronics" >
    <wtx:pins>
    <wtx:analog>
                <wtx:node index="1" x="0" y="20"/>
                <wtx:node index="2" x="60" y="20"/>
    </wtx:analog>
    </wtx:pins>
    <wtx:id>e</wtx:id>
    <wtx:type>v</wtx:type>
    <wtx:name>exponential</wtx:name>
    <wtx:category>power</wtx:category>
    <wtx:value></wtx:value>

    <wtx:eval1></wtx:eval1>
    <wtx:eval2></wtx:eval2>
    <wtx:eval3></wtx:eval3>
    <wtx:eval4></wtx:eval4>
    <wtx:eval5></wtx:eval5>
    <wtx:eval6></wtx:eval6>
    


    <wtx:label></wtx:label>
    <wtx:spice></wtx:spice>
    <wtx:flip></wtx:flip>
    <wtx:model></wtx:model>
</wtx:part>
</metadata>


<path fill="#ffffff" d=" M 0.00 0.00 L 60.00 0.00 L 60.00 19.00 C 55.39 19.00 50.78 19.00 46.17 19.01 C 44.98 13.67 42.89 7.90 37.81 5.10 C 32.32 1.22 24.68 1.22 19.19 5.10 C 14.11 7.90 12.02 13.67 10.83 19.01 C 7.22 19.00 3.61 18.99 0.00 19.00 L 0.00 0.00 Z" />
<path fill="#000000" d=" M 19.19 5.10 C 24.68 1.22 32.32 1.22 37.81 5.10 C 42.89 7.90 44.98 13.67 46.17 19.01 C 50.78 19.00 55.39 19.00 60.00 19.00 L 60.00 21.00 C 55.39 21.00 50.77 21.00 46.16 21.00 C 45.00 26.55 42.65 32.46 37.32 35.22 C 29.65 40.48 18.24 37.29 13.79 29.33 C 12.08 26.85 11.76 23.79 10.84 21.00 C 7.23 21.00 3.61 21.01 0.00 21.00 L 0.00 19.00 C 3.61 18.99 7.22 19.00 10.83 19.01 C 12.02 13.67 14.11 7.90 19.19 5.10 Z" />
<path fill="#ffffff" d=" M 27.28 3.12 C 31.69 2.89 36.15 4.61 39.60 7.38 C 45.19 12.79 46.59 21.93 42.60 28.67 C 38.39 36.58 27.11 39.31 19.73 34.22 C 9.85 28.50 9.60 12.21 19.22 6.13 C 21.52 4.24 24.49 3.83 27.28 3.12 Z" />
<path fill="#000000" d=" M 22.01 10.69 C 23.86 14.48 29.36 14.07 31.08 18.01 C 32.04 19.42 32.00 21.14 32.14 22.77 C 28.99 23.71 25.77 24.41 23.06 26.39 C 22.94 28.11 23.44 30.08 22.11 31.47 C 21.95 29.73 21.98 27.99 21.98 26.25 C 24.39 23.71 27.84 22.86 31.02 21.72 C 31.01 21.14 31.00 19.97 30.99 19.38 C 28.58 16.58 25.67 14.44 21.98 13.75 C 21.99 12.99 22.00 11.46 22.01 10.69 Z" />
<path fill="#000000" d=" M 35.80 20.55 C 37.86 20.12 38.14 18.11 38.88 16.50 C 38.94 17.38 39.06 19.14 39.12 20.01 C 40.42 20.00 41.72 20.00 43.01 19.99 L 43.01 21.00 C 41.71 21.00 40.42 20.99 39.13 20.99 C 39.05 21.88 38.89 23.65 38.81 24.54 C 38.33 23.49 37.97 22.41 37.73 21.29 C 37.25 21.11 36.29 20.73 35.80 20.55 Z" />
<path fill="#000000" d=" M 17.30 18.10 C 18.80 19.34 18.08 22.97 17.70 24.90 C 16.19 23.66 16.92 20.03 17.30 18.10 Z" />
<path fill="#ffffff" d=" M 0.00 21.00 C 3.61 21.01 7.23 21.00 10.84 21.00 C 11.76 23.79 12.08 26.85 13.79 29.33 C 18.24 37.29 29.65 40.48 37.32 35.22 C 42.65 32.46 45.00 26.55 46.16 21.00 C 50.77 21.00 55.39 21.00 60.00 21.00 L 60.00 40.00 L 24.76 40.00 C 26.25 37.97 22.80 37.85 23.92 40.00 L 0.00 40.00 L 0.00 21.00 Z" />
<path fill="#000000" d=" M 23.92 40.00 C 22.80 37.85 26.25 37.97 24.76 40.00 L 23.92 40.00 Z" />
</g>
</svg>
