<?xml version="1.0" encoding="UTF-8" ?>
<!DOCTYPE svg PUBLIC "-//W3C//DTD SVG 1.1//EN" "http://www.w3.org/Graphics/SVG/1.1/DTD/svg11.dtd">
<svg width="60pt" height="40pt"  version="1.1" xmlns="http://www.w3.org/2000/svg">



<g id="Pwl"  class="pwl">


<!--
    pwlval1=first time part T1
    pwlval2=first voltage part V1
    pwlval3=T2
    pwlval4=V2
    pwlval5=T3
    pwlval6=V3
    pwlval7=T4
    pwlval8=V4
    -->

    
<metadata class="part" >
<wtx:part xmlns:wtx="http://code.google.com/p/webtronics" >
    <wtx:pins>
    <wtx:analog>
                <wtx:node index="1" x="0" y="20"/>
                <wtx:node index="2" x="60" y="20"/>
    </wtx:analog>
    </wtx:pins>
    <wtx:id>w</wtx:id>
    <wtx:type>v</wtx:type>
    <wtx:name>pwl</wtx:name>
    <wtx:category>power</wtx:category>
    <wtx:value></wtx:value>

    <wtx:pwlval1></wtx:pwlval1>
    <wtx:pwlval2></wtx:pwlval2>
    <wtx:pwlval3></wtx:pwlval3>
    <wtx:pwlval4></wtx:pwlval4>
    <wtx:pwlval5></wtx:pwlval5>
    <wtx:pwlval6></wtx:pwlval6>
    <wtx:pwlval7></wtx:pwlval7>

    <wtx:pwlval8></wtx:pwlval8>


    <wtx:label></wtx:label>
    <wtx:spice></wtx:spice>
    <wtx:flip></wtx:flip>
    <wtx:model></wtx:model>
</wtx:part>
</metadata>





<path fill="#ffffff" d=" M 0.00 0.00 L 60.00 0.00 L 60.00 19.00 C 55.63 19.00 51.25 18.97 46.88 19.05 C 46.14 13.35 43.15 7.80 38.02 4.92 C 30.21 -0.51 18.48 2.78 13.93 10.98 C 11.98 13.26 11.92 16.30 11.12 19.05 C 7.42 18.98 3.71 19.00 0.00 19.00 L 0.00 0.00 Z" />
<path fill="#000000" d=" M 13.93 10.98 C 18.48 2.78 30.21 -0.51 38.02 4.92 C 43.15 7.80 46.14 13.35 46.88 19.05 C 51.25 18.97 55.63 19.00 60.00 19.00 L 60.00 21.00 C 55.62 21.00 51.23 21.02 46.85 20.97 C 46.09 29.36 39.19 36.93 30.66 37.64 C 20.97 38.83 11.90 30.52 11.16 20.97 C 7.44 21.01 3.72 21.00 0.00 21.00 L 0.00 19.00 C 3.71 19.00 7.42 18.98 11.12 19.05 C 11.92 16.30 11.98 13.26 13.93 10.98 Z" />
<path fill="#ffffff" d=" M 28.25 3.15 C 30.45 2.91 32.57 4.05 34.78 4.17 C 39.08 5.83 42.38 9.51 44.67 13.46 C 45.05 15.66 45.53 17.84 45.97 20.04 C 45.50 22.21 45.05 24.39 44.65 26.57 C 42.53 30.39 39.39 33.53 35.57 35.66 C 33.37 36.06 31.18 36.51 29.00 36.97 C 26.81 36.51 24.63 36.06 22.43 35.66 C 18.61 33.53 15.47 30.39 13.35 26.57 C 12.95 24.39 12.50 22.21 12.03 20.03 C 12.47 17.84 12.95 15.66 13.33 13.46 C 15.46 9.61 18.62 6.46 22.46 4.33 C 24.39 3.94 26.34 3.67 28.25 3.15 Z" />
<path fill="#000000" d=" M 20.36 10.85 C 24.06 11.65 27.69 12.79 31.43 13.46 C 29.65 14.76 27.50 13.55 25.62 13.22 C 23.70 12.89 21.83 12.17 20.36 10.85 Z" />
<path fill="#000000" d=" M 24.99 18.15 C 27.91 16.85 30.35 14.52 33.47 13.75 C 31.77 16.31 28.64 17.09 26.01 18.34 C 26.00 20.52 26.00 22.70 25.98 24.88 C 28.77 26.74 32.43 27.40 34.54 30.18 C 31.30 28.80 28.26 26.98 25.00 25.63 C 25.00 23.14 25.00 20.64 24.99 18.15 Z" />
<path fill="#000000" d=" M 38.99 16.00 L 40.00 15.98 C 40.00 17.32 40.00 18.66 40.01 20.00 C 41.34 20.00 42.68 20.00 44.02 19.99 L 44.00 20.90 C 41.99 20.94 39.55 20.53 39.51 23.32 C 39.31 22.80 38.90 21.76 38.70 21.25 C 37.57 20.99 36.48 20.64 35.41 20.20 C 36.32 20.12 38.13 19.94 39.03 19.86 C 39.01 18.57 39.00 17.28 38.99 16.00 Z" />
<path fill="#000000" d=" M 18.30 17.09 C 19.80 18.34 19.07 21.98 18.70 23.91 C 17.20 22.66 17.93 19.02 18.30 17.09 Z" />
<path fill="#ffffff" d=" M 0.00 21.00 C 3.72 21.00 7.44 21.01 11.16 20.97 C 11.90 30.52 20.97 38.83 30.66 37.64 C 39.19 36.93 46.09 29.36 46.85 20.97 C 51.23 21.02 55.62 21.00 60.00 21.00 L 60.00 40.00 L 24.81 40.00 C 26.25 37.94 22.80 37.85 23.96 40.00 L 0.00 40.00 L 0.00 21.00 Z" />
<path fill="#000000" d=" M 23.96 40.00 C 22.80 37.85 26.25 37.94 24.81 40.00 L 23.96 40.00 Z" />
</g>
</svg>
