<?xml version='1.0' ?>
<!--Created by webtronics 0.1-->
<svg xmlns="http://www.w3.org/2000/svg" width="403.4765625px" height="238.5px"><rect x="0" y="0" fill="white" width="403.4765625px" height="238.5px"/><text x="202" y="61" font-size="12" fill="black" stroke-width="0px" id="value-q1-ec1f621898f853"><tspan dx="-16" dy="15">2n2222</tspan><tspan dx="0" dy="0">q1</tspan></text><g class="npn" stroke-width="2px" stroke="#000" id="Q" transform="matrix(-6.123234262925839e-17,-1,-1,6.123234262925839e-17,242,101)">
<metadata class="part">
<wtx:part xmlns:wtx="/home/niel/Desktop/webtronics">
    <wtx:pins>
        <wtx:analog>
	  <!--spice order for transistors is collector base emmitter-->	  
            <wtx:node y="0" x="30" index="1"/>
            <wtx:node y="20" x="0" index="2"/>
            <wtx:node y="40" x="30" index="3"/>
        </wtx:analog>
    </wtx:pins>
    <wtx:id>q1</wtx:id>
    <wtx:type>q</wtx:type>
    <wtx:name>npn</wtx:name>
    <wtx:category>transistors</wtx:category>
    <wtx:value>2n2222</wtx:value>
    <wtx:label>value-q1-ec1f621898f853</wtx:label>
    <wtx:spice/>
    <wtx:flip>true</wtx:flip>
    <wtx:model>2n2222.lib</wtx:model>
</wtx:part>
</metadata>
 <rect visibility="hidden" id="rect2162" y="0" x="0" height="40" width="40"/>
  <path d="M15.508,31.531l0-23.068" id="path2178"/>
  <path fill="none" d="M30,0,30,7.6063,16,16.606" id="path2829"/>
  <path fill="none" d="m30,40,0-9-14-7" id="path2831"/>
  <path d="m25,31.606,2-4,3,4-5-0.000001z" id="path3613"/>
  <path d="m0,20,15,0" id="path3615"/>
 </g><text x="122" y="61" font-size="12" fill="black" stroke-width="0px" id="value-r1-e39b65cd238e5d"><tspan dx="-14" dy="15">1k</tspan><tspan dx="0" dy="0">r1</tspan></text><g stroke-width="2px" stroke="black" transform="matrix(1,0,0,1,122,61)">
<metadata class="part">
<wtx:part xmlns:wtx="/home/niel/Desktop/webtronics">
    <wtx:pins>
		<wtx:analog>
		  <wtx:node y="10" x="0" index="1"/>
		  <wtx:node y="10" x="40" index="2"/>
		</wtx:analog>
    </wtx:pins>
    <wtx:id>r1</wtx:id>
    <wtx:type>r</wtx:type>
    <wtx:name>resistor</wtx:name>
    <wtx:category>resistors</wtx:category>
    <wtx:value>1k</wtx:value>
    <wtx:label>value-r1-e39b65cd238e5d</wtx:label>
    <wtx:spice/>
    <wtx:flip/>
    <wtx:model/>
</wtx:part>
</metadata>

    <path fill="none" id="path3444" d="M 5.1400289,10.973441 7.5009997,5.0436578 10.530362,14.908323 14.248435,4.3282724 18.324457,14.77488 21.761826,4.4617163 25.849828,14.589134 29.504786,4.5222528 33.128938,14.818135 35.33864,10.115602"/>
    <path id="path2159" d="m 0,10 5.424147,0"/>
    <path id="path2161" d="m 40,10 -5.459106,0"/>
    <rect visibility="hidden" id="rect2162" y="0" x="0" height="20" width="40"/>

  </g><text x="242" y="21" font-size="12" fill="black" stroke-width="0px" id="value-r2-7d7f6843b6973d"><tspan dx="-14" dy="15">1k</tspan><tspan dx="0" dy="0">r2</tspan></text><g stroke-width="2px" stroke="black" transform="matrix(6.123234262925839e-17,1,-1,6.123234262925839e-17,272,11)">
<metadata class="part">
<wtx:part xmlns:wtx="/home/niel/Desktop/webtronics">
    <wtx:pins>
		<wtx:analog>
		  <wtx:node y="10" x="0" index="1"/>
		  <wtx:node y="10" x="40" index="2"/>
		</wtx:analog>
    </wtx:pins>
    <wtx:id>r2</wtx:id>
    <wtx:type>r</wtx:type>
    <wtx:name>resistor</wtx:name>
    <wtx:category>resistors</wtx:category>
    <wtx:value>1k</wtx:value>
    <wtx:label>value-r2-7d7f6843b6973d</wtx:label>
    <wtx:spice/>
    <wtx:flip/>
    <wtx:model/>
</wtx:part>
</metadata>

    <path fill="none" id="path3444" d="M 5.1400289,10.973441 7.5009997,5.0436578 10.530362,14.908323 14.248435,4.3282724 18.324457,14.77488 21.761826,4.4617163 25.849828,14.589134 29.504786,4.5222528 33.128938,14.818135 35.33864,10.115602"/>
    <path id="path2159" d="m 0,10 5.424147,0"/>
    <path id="path2161" d="m 40,10 -5.459106,0"/>
    <rect visibility="hidden" id="rect2162" y="0" x="0" height="20" width="40"/>

  </g><text x="22" y="101" font-size="12" fill="black" stroke-width="0px" id="value-i1-cbe58316e75fdf"><tspan dx="-12" dy="15">20m</tspan><tspan dx="0" dy="0">i1</tspan></text><g class="ac" connects="0,20;60,20" stroke-width="2px" stroke="#000" id="v" transform="matrix(-1.8369702788777518e-16,-1,1,-1.8369702788777518e-16,32,151)">
<metadata class="part">
<wtx:part xmlns:wtx="/home/niel/Desktop/webtronics">
    <wtx:pins>
    <wtx:analog>
                <wtx:node y="20" x="0" index="1"/>
                <wtx:node y="20" x="60" index="2"/>
    </wtx:analog>
    </wtx:pins>
    <wtx:id>i1</wtx:id>
    <wtx:type>i</wtx:type>
    <wtx:name>current</wtx:name>
    <wtx:category>sources</wtx:category>
    <wtx:value>20m</wtx:value>
    <wtx:label>value-i1-cbe58316e75fdf</wtx:label>
    <wtx:spice/>
    <wtx:flip/>
    <wtx:model/>
</wtx:part>
</metadata>
  <path d="m50.381,19.923a20.203,19.698,0,1,1,-40.406,0,20.203,19.698,0,1,1,40.406,0z" fill="none" id="path2816"/>
  <path d="M10,20,0,20" id="path2818"/>
  <path d="m50,20,10,0" id="path2820"/>
  <path d="M20,20,40,20" id="path2820"/>
  <path d="M35,15,40,20,35,25" id="path2820"/>
  
  
</g><text x="342" y="50.9998779296875" font-size="12" fill="black" stroke-width="0px" id="value-v1-289dc5b688adf1"><tspan dx="-15" dy="15">12</tspan><tspan dx="0" dy="0">v1</tspan></text><g class="battery" id="v" stroke-width="2px" stroke="black" transform="matrix(3.0616169991140216e-16,1,-1,3.0616169991140216e-16,382,41)">
<metadata class="part">
<wtx:part xmlns:wtx="/home/niel/Desktop/webtronics">
    <wtx:pins>
    <wtx:analog>
        <wtx:node y="10" x="0" index="1"/>
        <wtx:node y="10" x="50" index="2"/>
    </wtx:analog>
    </wtx:pins>
    <wtx:id>v1</wtx:id>
    <wtx:type>v</wtx:type>
    <wtx:name>battery</wtx:name>
    <wtx:category>sources</wtx:category>
    <wtx:value>12</wtx:value>
    <wtx:label>value-v1-289dc5b688adf1</wtx:label>
    <wtx:spice/>
    <wtx:flip/>
    <wtx:model/>
</wtx:part>
</metadata>
      <path id="path5009" d="M 0,10 L 17,10"/>
      <path id="path5019" d="M 32,10 L 50,10"/>
      <path id="path5011" d="M 17.836609,0.68314333 L 17.718673,19.199113"/>
      <path id="path5013" d="M 22.436119,3.7494823 L 22.436119,15.071349"/>
      <path id="path5015" d="M 27.507371,0.68314333 L 27.507371,19.552922"/>
      <path id="path5017" d="M 31.753072,3.8674183 L 31.635136,15.425157"/>
      <text stroke-width="0px" font-size="12px" id="text5025" y="8.5261526" x="8.2167969">+</text>
      <text stroke-width="0px" font-size="12px" id="text5029" y="0.5234375" x="34.111794">_</text>
  </g><text x="212" y="211.0001220703125" font-size="12" fill="black" stroke-width="0px" id="value-gnd-14410b7bfb1f40"><tspan dx="0" dy="0">gnd</tspan></text><g class="ground" id="Gnd" stroke-width="2px" stroke="black" connects="10,0" transform="matrix(1,0,0,1,212,211)">
<metadata>
<wtx:part xmlns:wtx="/home/niel/Desktop/webtronics">
    <wtx:pins>
        <wtx:analog>
            <wtx:node y="0" x="10" index="1"/>
        </wtx:analog>
    </wtx:pins>
    <wtx:id>gnd</wtx:id>
    <wtx:type>gnd</wtx:type>
    <wtx:name>ground</wtx:name>
    <wtx:category>sources</wtx:category>
    <wtx:flip/>
    <wtx:value/>
    <wtx:label>value-gnd-14410b7bfb1f40</wtx:label>
    <wtx:spice/>
    <wtx:model/>
</wtx:part>
</metadata>

    <path id="path3694" d="M 10,0 L 10,11"/>
    <path id="path3696" d="M 0.50000006,11.834153 L 19.671275,11.834153"/>
    <path id="path3698" d="M 2.6480823,14.5 L 17.732881,14.5"/>
    <path id="path3700" d="M 5.802873,17.5 L 14.648082,17.5"/>
  </g><circle cx="222" cy="180" r="3" stroke="black" fill="black"/><circle cx="222" cy="180" r="3" stroke="black" fill="black"/><line x1="52" y1="91" x2="52" y2="72" stroke="black" stroke-width="2"/><line x1="52" y1="72" x2="122" y2="72" stroke="black" stroke-width="2"/><line x1="122" y1="72" x2="122" y2="71" stroke="black" stroke-width="2"/><line x1="162" y1="71" x2="202" y2="71" stroke="black" stroke-width="2"/><line x1="242" y1="71" x2="262" y2="71" stroke="black" stroke-width="2"/><line x1="262" y1="71" x2="262" y2="51" stroke="black" stroke-width="2"/><line x1="262" y1="11" x2="372" y2="11" stroke="black" stroke-width="2"/><line x1="372" y1="11" x2="372" y2="41" stroke="black" stroke-width="2"/><line x1="52" y1="151" x2="52" y2="180" stroke="black" stroke-width="2"/><line x1="52" y1="180" x2="372" y2="180" stroke="black" stroke-width="2"/><line x1="372" y1="180" x2="372" y2="91" stroke="black" stroke-width="2"/><line x1="52" y1="180" x2="222" y2="180" stroke="black" stroke-width="2"/><line x1="222" y1="180" x2="372" y2="180" stroke="black" stroke-width="2"/><line x1="222" y1="101" x2="222" y2="180" stroke="black" stroke-width="2"/><line x1="222" y1="101" x2="222" y2="180" stroke="black" stroke-width="2"/><line x1="222" y1="211" x2="222" y2="180" stroke="black" stroke-width="2"/></svg>