<?xml version='1.0' ?>
<!--Created by webtronics 0.1-->
<svg xmlns="http://www.w3.org/2000/svg" width="571.4765625px" height="321.5px"><rect x="0" y="0" fill="white" width="571.4765625px" height="321.5px"/><text x="70" y="134" font-size="12" fill="black" stroke-width="0px" id="value-r1-d1386fde9624eb"><tspan dx="-14" dy="15">50</tspan><tspan dx="0" dy="0">r1</tspan></text><g stroke-width="2px" stroke="black" transform="matrix(1,0,0,1,70,134)">
<metadata class="part">
<wtx:part xmlns:wtx="/home/niel/Desktop/webtronics">
    <wtx:pins>
		<wtx:analog>
		  <wtx:node y="10" x="0" index="1"/>
		  <wtx:node y="10" x="40" index="2"/>
		</wtx:analog>
    </wtx:pins>
    <wtx:id>r1</wtx:id>
    <wtx:type>r</wtx:type>
    <wtx:name>resistor</wtx:name>
    <wtx:category>resistors</wtx:category>
    <wtx:value>50</wtx:value>
    <wtx:label>value-r1-d1386fde9624eb</wtx:label>
    <wtx:spice/>
    <wtx:flip/>
    <wtx:model/>
</wtx:part>
</metadata>

    <path fill="none" id="path3444" d="M 5.1400289,10.973441 7.5009997,5.0436578 10.530362,14.908323 14.248435,4.3282724 18.324457,14.77488 21.761826,4.4617163 25.849828,14.589134 29.504786,4.5222528 33.128938,14.818135 35.33864,10.115602"/>
    <path id="path2159" d="m 0,10 5.424147,0"/>
    <path id="path2161" d="m 40,10 -5.459106,0"/>
    <rect visibility="hidden" id="rect2162" y="0" x="0" height="20" width="40"/>

  </g><text x="150" y="134" font-size="12" fill="black" stroke-width="0px" id="value-c1-e2724e754b39d1"><tspan dx="-15" dy="15">40u</tspan><tspan dx="0" dy="0">c1</tspan></text><g class="capacitor" id="C" stroke-width="2px" stroke="black" connects="0,10;30,10" transform="matrix(1,0,0,1,150,134)">
<metadata class="part">
<wtx:part xmlns:wtx="/home/niel/Desktop/webtronics">
    <wtx:pins>
		<wtx:analog>
			<wtx:node y="10" x="0" index="1"/>
			<wtx:node y="10" x="30" index="2"/>
		</wtx:analog>
    </wtx:pins>
    <wtx:id>c1</wtx:id>
    <wtx:type>c</wtx:type>
    <wtx:name>capacitor</wtx:name>
    <wtx:category>capacitors</wtx:category>
    <wtx:value>40u</wtx:value>
    <wtx:label>value-c1-e2724e754b39d1</wtx:label>
    <wtx:spice/>
    <wtx:flip/>
    <wtx:model/>
</wtx:part>
</metadata>
    <path id="path3412" d="M 10,0 10,20"/>
    <path id="path3414" d="m 20,0 0,20"/>
    <path id="path3420" d="m 20,10 10,0"/>
    <path id="path3422" d="M 10,10 0,10"/>
  </g><text x="200" y="54" font-size="12" fill="black" stroke-width="0px" id="value-r2-f7dc69ac33489d"><tspan dx="-14" dy="15">200k</tspan><tspan dx="0" dy="0">r2</tspan></text><g stroke-width="2px" stroke="black" transform="matrix(6.123234262925839e-17,1,-1,6.123234262925839e-17,230,44)">
<metadata class="part">
<wtx:part xmlns:wtx="/home/niel/Desktop/webtronics">
    <wtx:pins>
		<wtx:analog>
		  <wtx:node y="10" x="0" index="1"/>
		  <wtx:node y="10" x="40" index="2"/>
		</wtx:analog>
    </wtx:pins>
    <wtx:id>r2</wtx:id>
    <wtx:type>r</wtx:type>
    <wtx:name>resistor</wtx:name>
    <wtx:category>resistors</wtx:category>
    <wtx:value>200k</wtx:value>
    <wtx:label>value-r2-f7dc69ac33489d</wtx:label>
    <wtx:spice/>
    <wtx:flip/>
    <wtx:model/>
</wtx:part>
</metadata>

    <path fill="none" id="path3444" d="M 5.1400289,10.973441 7.5009997,5.0436578 10.530362,14.908323 14.248435,4.3282724 18.324457,14.77488 21.761826,4.4617163 25.849828,14.589134 29.504786,4.5222528 33.128938,14.818135 35.33864,10.115602"/>
    <path id="path2159" d="m 0,10 5.424147,0"/>
    <path id="path2161" d="m 40,10 -5.459106,0"/>
    <rect visibility="hidden" id="rect2162" y="0" x="0" height="20" width="40"/>

  </g><text x="200" y="204" font-size="12" fill="black" stroke-width="0px" id="value-r3-c1ded050af5f6b"><tspan dx="-14" dy="15">50k</tspan><tspan dx="0" dy="0">r3</tspan></text><g stroke-width="2px" stroke="black" transform="matrix(6.123234262925839e-17,1,-1,6.123234262925839e-17,230,194)">
<metadata class="part">
<wtx:part xmlns:wtx="/home/niel/Desktop/webtronics">
    <wtx:pins>
		<wtx:analog>
		  <wtx:node y="10" x="0" index="1"/>
		  <wtx:node y="10" x="40" index="2"/>
		</wtx:analog>
    </wtx:pins>
    <wtx:id>r3</wtx:id>
    <wtx:type>r</wtx:type>
    <wtx:name>resistor</wtx:name>
    <wtx:category>resistors</wtx:category>
    <wtx:value>50k</wtx:value>
    <wtx:label>value-r3-c1ded050af5f6b</wtx:label>
    <wtx:spice/>
    <wtx:flip/>
    <wtx:model/>
</wtx:part>
</metadata>

    <path fill="none" id="path3444" d="M 5.1400289,10.973441 7.5009997,5.0436578 10.530362,14.908323 14.248435,4.3282724 18.324457,14.77488 21.761826,4.4617163 25.849828,14.589134 29.504786,4.5222528 33.128938,14.818135 35.33864,10.115602"/>
    <path id="path2159" d="m 0,10 5.424147,0"/>
    <path id="path2161" d="m 40,10 -5.459106,0"/>
    <rect visibility="hidden" id="rect2162" y="0" x="0" height="20" width="40"/>

  </g><text x="270" y="124" font-size="12" fill="black" stroke-width="0px" id="value-q1-cb86cd9c47bb7b"><tspan dx="-16" dy="15">2n2222</tspan><tspan dx="0" dy="0">q1</tspan></text><g class="npn" stroke-width="2px" stroke="#000" id="Q" transform="matrix(1,0,0,1,270,124)">
<metadata class="part">
<wtx:part xmlns:wtx="/home/niel/Desktop/webtronics">
    <wtx:pins>
        <wtx:analog>
	  <!--spice order for transistors is collector base emmitter-->	  
            <wtx:node y="0" x="30" index="1"/>
            <wtx:node y="20" x="0" index="2"/>
            <wtx:node y="40" x="30" index="3"/>
        </wtx:analog>
    </wtx:pins>
    <wtx:id>q1</wtx:id>
    <wtx:type>q</wtx:type>
    <wtx:name>npn</wtx:name>
    <wtx:category>transistors</wtx:category>
    <wtx:value>2n2222</wtx:value>
    <wtx:label>value-q1-cb86cd9c47bb7b</wtx:label>
    <wtx:spice/>
    <wtx:flip>true</wtx:flip>
    <wtx:model>2n2222.lib</wtx:model>
</wtx:part>
</metadata>
 <rect visibility="hidden" id="rect2162" y="0" x="0" height="40" width="40"/>
  <path d="M15.508,31.531l0-23.068" id="path2178"/>
  <path fill="none" d="M30,0,30,7.6063,16,16.606" id="path2829"/>
  <path fill="none" d="m30,40,0-9-14-7" id="path2831"/>
  <path d="m25,31.606,2-4,3,4-5-0.000001z" id="path3613"/>
  <path d="m0,20,15,0" id="path3615"/>
 </g><text x="280" y="204" font-size="12" fill="black" stroke-width="0px" id="value-r4-b426f7e69913c2"><tspan dx="-14" dy="15">1.5k</tspan><tspan dx="0" dy="0">r4</tspan></text><g stroke-width="2px" stroke="black" transform="matrix(6.123234262925839e-17,1,-1,6.123234262925839e-17,310,194)">
<metadata class="part">
<wtx:part xmlns:wtx="/home/niel/Desktop/webtronics">
    <wtx:pins>
		<wtx:analog>
		  <wtx:node y="10" x="0" index="1"/>
		  <wtx:node y="10" x="40" index="2"/>
		</wtx:analog>
    </wtx:pins>
    <wtx:id>r4</wtx:id>
    <wtx:type>r</wtx:type>
    <wtx:name>resistor</wtx:name>
    <wtx:category>resistors</wtx:category>
    <wtx:value>1.5k</wtx:value>
    <wtx:label>value-r4-b426f7e69913c2</wtx:label>
    <wtx:spice/>
    <wtx:flip/>
    <wtx:model/>
</wtx:part>
</metadata>

    <path fill="none" id="path3444" d="M 5.1400289,10.973441 7.5009997,5.0436578 10.530362,14.908323 14.248435,4.3282724 18.324457,14.77488 21.761826,4.4617163 25.849828,14.589134 29.504786,4.5222528 33.128938,14.818135 35.33864,10.115602"/>
    <path id="path2159" d="m 0,10 5.424147,0"/>
    <path id="path2161" d="m 40,10 -5.459106,0"/>
    <rect visibility="hidden" id="rect2162" y="0" x="0" height="20" width="40"/>

  </g><text x="280" y="54" font-size="12" fill="black" stroke-width="0px" id="value-r5-1fc33581be831d"><tspan dx="-14" dy="15">2k</tspan><tspan dx="0" dy="0">r5</tspan></text><g stroke-width="2px" stroke="black" transform="matrix(6.123234262925839e-17,1,-1,6.123234262925839e-17,310,44)">
<metadata class="part">
<wtx:part xmlns:wtx="/home/niel/Desktop/webtronics">
    <wtx:pins>
		<wtx:analog>
		  <wtx:node y="10" x="0" index="1"/>
		  <wtx:node y="10" x="40" index="2"/>
		</wtx:analog>
    </wtx:pins>
    <wtx:id>r5</wtx:id>
    <wtx:type>r</wtx:type>
    <wtx:name>resistor</wtx:name>
    <wtx:category>resistors</wtx:category>
    <wtx:value>2k</wtx:value>
    <wtx:label>value-r5-1fc33581be831d</wtx:label>
    <wtx:spice/>
    <wtx:flip/>
    <wtx:model/>
</wtx:part>
</metadata>

    <path fill="none" id="path3444" d="M 5.1400289,10.973441 7.5009997,5.0436578 10.530362,14.908323 14.248435,4.3282724 18.324457,14.77488 21.761826,4.4617163 25.849828,14.589134 29.504786,4.5222528 33.128938,14.818135 35.33864,10.115602"/>
    <path id="path2159" d="m 0,10 5.424147,0"/>
    <path id="path2161" d="m 40,10 -5.459106,0"/>
    <rect visibility="hidden" id="rect2162" y="0" x="0" height="20" width="40"/>

  </g><text x="350" y="204" font-size="12" fill="black" stroke-width="0px" id="value-c2-7a6c5f02387ac0"><tspan dx="-15" dy="15">100u</tspan><tspan dx="0" dy="0">c2</tspan></text><g class="capacitor" id="C" stroke-width="2px" stroke="black" connects="0,10;30,10" transform="matrix(6.123234262925839e-17,1,-1,6.123234262925839e-17,380,204)">
<metadata class="part">
<wtx:part xmlns:wtx="/home/niel/Desktop/webtronics">
    <wtx:pins>
		<wtx:analog>
			<wtx:node y="10" x="0" index="1"/>
			<wtx:node y="10" x="30" index="2"/>
		</wtx:analog>
    </wtx:pins>
    <wtx:id>c2</wtx:id>
    <wtx:type>c</wtx:type>
    <wtx:name>capacitor</wtx:name>
    <wtx:category>capacitors</wtx:category>
    <wtx:value>100u</wtx:value>
    <wtx:label>value-c2-7a6c5f02387ac0</wtx:label>
    <wtx:spice/>
    <wtx:flip/>
    <wtx:model/>
</wtx:part>
</metadata>
    <path id="path3412" d="M 10,0 10,20"/>
    <path id="path3414" d="m 20,0 0,20"/>
    <path id="path3420" d="m 20,10 10,0"/>
    <path id="path3422" d="M 10,10 0,10"/>
  </g><text x="370" y="94" font-size="12" fill="black" stroke-width="0px" id="value-c3-dff89aecb168b0"><tspan dx="-15" dy="15">40u</tspan><tspan dx="0" dy="0">c3</tspan></text><g class="capacitor" id="C" stroke-width="2px" stroke="black" connects="0,10;30,10" transform="matrix(1,0,0,1,370,94)">
<metadata class="part">
<wtx:part xmlns:wtx="/home/niel/Desktop/webtronics">
    <wtx:pins>
		<wtx:analog>
			<wtx:node y="10" x="0" index="1"/>
			<wtx:node y="10" x="30" index="2"/>
		</wtx:analog>
    </wtx:pins>
    <wtx:id>c3</wtx:id>
    <wtx:type>c</wtx:type>
    <wtx:name>capacitor</wtx:name>
    <wtx:category>capacitors</wtx:category>
    <wtx:value>40u</wtx:value>
    <wtx:label>value-c3-dff89aecb168b0</wtx:label>
    <wtx:spice/>
    <wtx:flip/>
    <wtx:model/>
</wtx:part>
</metadata>
    <path id="path3412" d="M 10,0 10,20"/>
    <path id="path3414" d="m 20,0 0,20"/>
    <path id="path3420" d="m 20,10 10,0"/>
    <path id="path3422" d="M 10,10 0,10"/>
  </g><text x="420" y="154" font-size="12" fill="black" stroke-width="0px" id="value-r6-ce5a7805da26a2"><tspan dx="-14" dy="15">1k</tspan><tspan dx="0" dy="0">r6</tspan></text><g stroke-width="2px" stroke="black" transform="matrix(6.123234262925839e-17,1,-1,6.123234262925839e-17,450,144)">
<metadata class="part">
<wtx:part xmlns:wtx="/home/niel/Desktop/webtronics">
    <wtx:pins>
		<wtx:analog>
		  <wtx:node y="10" x="0" index="1"/>
		  <wtx:node y="10" x="40" index="2"/>
		</wtx:analog>
    </wtx:pins>
    <wtx:id>r6</wtx:id>
    <wtx:type>r</wtx:type>
    <wtx:name>resistor</wtx:name>
    <wtx:category>resistors</wtx:category>
    <wtx:value>1k</wtx:value>
    <wtx:label>value-r6-ce5a7805da26a2</wtx:label>
    <wtx:spice/>
    <wtx:flip/>
    <wtx:model/>
</wtx:part>
</metadata>

    <path fill="none" id="path3444" d="M 5.1400289,10.973441 7.5009997,5.0436578 10.530362,14.908323 14.248435,4.3282724 18.324457,14.77488 21.761826,4.4617163 25.849828,14.589134 29.504786,4.5222528 33.128938,14.818135 35.33864,10.115602"/>
    <path id="path2159" d="m 0,10 5.424147,0"/>
    <path id="path2161" d="m 40,10 -5.459106,0"/>
    <rect visibility="hidden" id="rect2162" y="0" x="0" height="20" width="40"/>

  </g><text x="510" y="123.9998779296875" font-size="12" fill="black" stroke-width="0px" id="value-v2-76f4ad882b25d0"><tspan dx="-15" dy="15">10</tspan><tspan dx="0" dy="0">v2</tspan></text><g class="battery" id="v" stroke-width="2px" stroke="black" transform="matrix(6.123234262925839e-17,1,-1,6.123234262925839e-17,550,114)">
<metadata class="part">
<wtx:part xmlns:wtx="/home/niel/Desktop/webtronics">
    <wtx:pins>
    <wtx:analog>
        <wtx:node y="10" x="0" index="1"/>
        <wtx:node y="10" x="50" index="2"/>
    </wtx:analog>
    </wtx:pins>
    <wtx:id>v2</wtx:id>
    <wtx:type>v</wtx:type>
    <wtx:name>battery</wtx:name>
    <wtx:category>sources</wtx:category>
    <wtx:value>10</wtx:value>
    <wtx:label>value-v2-76f4ad882b25d0</wtx:label>
    <wtx:spice/>
    <wtx:flip/>
    <wtx:model/>
</wtx:part>
</metadata>
      <path id="path5009" d="M 0,10 L 17,10"/>
      <path id="path5019" d="M 32,10 L 50,10"/>
      <path id="path5011" d="M 17.836609,0.68314333 L 17.718673,19.199113"/>
      <path id="path5013" d="M 22.436119,3.7494823 L 22.436119,15.071349"/>
      <path id="path5015" d="M 27.507371,0.68314333 L 27.507371,19.552922"/>
      <path id="path5017" d="M 31.753072,3.8674183 L 31.635136,15.425157"/>
      <text stroke-width="0px" font-size="12px" id="text5025" y="8.5261526" x="8.2167969">+</text>
      <text stroke-width="0px" font-size="12px" id="text5029" y="0.5234375" x="34.111794">_</text>
  </g><text x="290" y="294.0001220703125" font-size="12" fill="black" stroke-width="0px" id="value-gnd-994978efe8776b"><tspan dx="0" dy="0">gnd</tspan></text><g class="ground" id="Gnd" stroke-width="2px" stroke="black" connects="10,0" transform="matrix(1,0,0,1,290,294)">
<metadata>
<wtx:part xmlns:wtx="/home/niel/Desktop/webtronics">
    <wtx:pins>
        <wtx:analog>
            <wtx:node y="0" x="10" index="1"/>
        </wtx:analog>
    </wtx:pins>
    <wtx:id>gnd</wtx:id>
    <wtx:type>gnd</wtx:type>
    <wtx:name>ground</wtx:name>
    <wtx:category>sources</wtx:category>
    <wtx:flip/>
    <wtx:value/>
    <wtx:label>value-gnd-994978efe8776b</wtx:label>
    <wtx:spice/>
    <wtx:model/>
</wtx:part>
</metadata>

    <path id="path3694" d="M 10,0 L 10,11"/>
    <path id="path3696" d="M 0.50000006,11.834153 L 19.671275,11.834153"/>
    <path id="path3698" d="M 2.6480823,14.5 L 17.732881,14.5"/>
    <path id="path3700" d="M 5.802873,17.5 L 14.648082,17.5"/>
  </g><circle cx="220" cy="262" r="3" stroke="black" fill="black"/><circle cx="300" cy="262" r="3" stroke="black" fill="black"/><circle cx="370" cy="262" r="3" stroke="black" fill="black"/><circle cx="300" cy="262" r="3" stroke="black" fill="black"/><circle cx="300" cy="186" r="3" stroke="black" fill="black"/><circle cx="300" cy="104" r="3" stroke="black" fill="black"/><circle cx="440" cy="262" r="3" stroke="black" fill="black"/><circle cx="300" cy="13" r="3" stroke="black" fill="black"/><circle cx="220" cy="144" r="3" stroke="black" fill="black"/><circle cx="220" cy="142" r="3" stroke="black" fill="black"/><text x="10" y="174" font-size="12" fill="black" stroke-width="0px" id="value-v1-f535b7f6d4cdd1"><tspan dx="0" dy="0">v1</tspan></text><g class="sinvoltagesource" connects="0,20;60,20" stroke-width="2px" stroke="#000" id="S" transform="matrix(6.123234262925839e-17,1,-1,6.123234262925839e-17,60,164)">
<metadata class="part">
<wtx:part xmlns:wtx="http://code.google.com/p/webtronics">
    <wtx:pins>
    <wtx:analog>
                <wtx:node y="20" x="0" index="1"/>
                <wtx:node y="20" x="60" index="2"/>
    </wtx:analog>
    </wtx:pins>
    <wtx:id>v1</wtx:id>
    <wtx:type>v</wtx:type>
    <wtx:name>sinvoltagesource</wtx:name>
    <wtx:category>sources</wtx:category>
    <wtx:value/>
    
    <wtx:offsetvoltage>0</wtx:offsetvoltage>
    <wtx:voltageamplitude>10m</wtx:voltageamplitude>
    <wtx:frequency>1k</wtx:frequency>
    <wtx:delaytime>0</wtx:delaytime>
    <wtx:dampingfactor>0</wtx:dampingfactor>

    <wtx:label>value-v1-f535b7f6d4cdd1</wtx:label>
    <wtx:spice/>
    <wtx:flip/>
    <wtx:model/>
    <wtx:measure/>
</wtx:part>
</metadata>
  <path d="m50.381,19.923a20.203,19.698,0,1,1,-40.406,0,20.203,19.698,0,1,1,40.406,0z" fill="none" id="path2816"/>
  <path d="M10,20,0,20" id="path2818"/>
  <path d="m50,20,10,0" id="path2820"/>
  <path fill="none" stroke-width="1px" d="M15.763,19.492c10.699,23.004,16.424-16.073,27.966,0.169" id="path2819"/>
<text stroke-width="0px" font-size="12px" id="text5025" y="20" x="0">+</text>
<text stroke-width="0px" font-size="12px" id="text5029" y="15" x="53">_</text>

</g><line x1="220" y1="84" x2="220" y2="194" stroke="black" stroke-width="2"/><line x1="40" y1="224" x2="40" y2="262" stroke="black" stroke-width="2"/><line x1="40" y1="262" x2="540" y2="262" stroke="black" stroke-width="2"/><line x1="540" y1="262" x2="540" y2="164" stroke="black" stroke-width="2"/><line x1="40" y1="262" x2="220" y2="262" stroke="black" stroke-width="2"/><line x1="220" y1="262" x2="540" y2="262" stroke="black" stroke-width="2"/><line x1="220" y1="234" x2="220" y2="262" stroke="black" stroke-width="2"/><line x1="220" y1="262" x2="300" y2="262" stroke="black" stroke-width="2"/><line x1="300" y1="262" x2="540" y2="262" stroke="black" stroke-width="2"/><line x1="300" y1="234" x2="300" y2="262" stroke="black" stroke-width="2"/><line x1="300" y1="262" x2="370" y2="262" stroke="black" stroke-width="2"/><line x1="370" y1="262" x2="540" y2="262" stroke="black" stroke-width="2"/><line x1="370" y1="234" x2="370" y2="262" stroke="black" stroke-width="2"/><line x1="220" y1="262" x2="300" y2="262" stroke="black" stroke-width="2"/><line x1="300" y1="262" x2="540" y2="262" stroke="black" stroke-width="2"/><line x1="300" y1="294" x2="300" y2="262" stroke="black" stroke-width="2"/><line x1="300" y1="194" x2="300" y2="164" stroke="black" stroke-width="2"/><line x1="370" y1="204" x2="370" y2="186" stroke="black" stroke-width="2"/><line x1="300" y1="194" x2="300" y2="186" stroke="black" stroke-width="2"/><line x1="300" y1="186" x2="300" y2="164" stroke="black" stroke-width="2"/><line x1="370" y1="186" x2="300" y2="186" stroke="black" stroke-width="2"/><line x1="300" y1="84" x2="300" y2="124" stroke="black" stroke-width="2"/><line x1="300" y1="84" x2="300" y2="104" stroke="black" stroke-width="2"/><line x1="300" y1="104" x2="300" y2="124" stroke="black" stroke-width="2"/><line x1="370" y1="104" x2="300" y2="104" stroke="black" stroke-width="2"/><line x1="400" y1="104" x2="440" y2="104" stroke="black" stroke-width="2"/><line x1="440" y1="104" x2="440" y2="144" stroke="black" stroke-width="2"/><line x1="300" y1="262" x2="440" y2="262" stroke="black" stroke-width="2"/><line x1="440" y1="262" x2="540" y2="262" stroke="black" stroke-width="2"/><line x1="440" y1="184" x2="440" y2="262" stroke="black" stroke-width="2"/><line x1="540" y1="114" x2="540" y2="13" stroke="black" stroke-width="2"/><line x1="540" y1="13" x2="220" y2="13" stroke="black" stroke-width="2"/><line x1="220" y1="13" x2="220" y2="44" stroke="black" stroke-width="2"/><line x1="540" y1="13" x2="300" y2="13" stroke="black" stroke-width="2"/><line x1="300" y1="13" x2="220" y2="13" stroke="black" stroke-width="2"/><line x1="300" y1="44" x2="300" y2="13" stroke="black" stroke-width="2"/><line x1="40" y1="164" x2="40" y2="144" stroke="black" stroke-width="2"/><line x1="40" y1="144" x2="70" y2="144" stroke="black" stroke-width="2"/><line x1="110" y1="144" x2="150" y2="144" stroke="black" stroke-width="2"/><line x1="150" y1="144" x2="180" y2="144" stroke="black" stroke-width="2"/><line x1="220" y1="84" x2="220" y2="144" stroke="black" stroke-width="2"/><line x1="220" y1="144" x2="220" y2="194" stroke="black" stroke-width="2"/><line x1="180" y1="144" x2="220" y2="144" stroke="black" stroke-width="2"/><line x1="220" y1="84" x2="220" y2="142" stroke="black" stroke-width="2"/><line x1="220" y1="142" x2="220" y2="144" stroke="black" stroke-width="2"/><line x1="270" y1="144" x2="220" y2="144" stroke="black" stroke-width="2"/><line x1="220" y1="144" x2="220" y2="142" stroke="black" stroke-width="2"/></svg>