<?xml version='1.0' ?>
<!--Created by webtronics 0.1-->
<svg xmlns="http://www.w3.org/2000/svg" width="358px" height="187.5px"><rect x="0" y="0" fill="white" width="358px" height="187.5px"/><text x="10" y="60" font-size="12" fill="black" stroke-width="0px" id="value-v1-5492edf60d2a6b"><tspan dx="0" dy="0">v1</tspan></text><g class="sinvoltagesource" connects="0,20;60,20" stroke-width="2px" stroke="#000" id="S" transform="matrix(6.123234262925839e-17,1,-1,6.123234262925839e-17,60,50)">
<metadata class="part">
<wtx:part xmlns:wtx="http://code.google.com/p/webtronics">
    <wtx:pins>
    <wtx:analog>
                <wtx:node y="20" x="0" index="1"/>
                <wtx:node y="20" x="60" index="2"/>
    </wtx:analog>
    </wtx:pins>
    <wtx:id>v1</wtx:id>
    <wtx:type>v</wtx:type>
    <wtx:name>sinvoltagesource</wtx:name>
    <wtx:category>sources</wtx:category>
    <wtx:value/>
    
    <wtx:offsetvoltage>0</wtx:offsetvoltage>
    <wtx:voltageamplitude>5</wtx:voltageamplitude>
    <wtx:frequency>50</wtx:frequency>
    <wtx:delaytime>0</wtx:delaytime>
    <wtx:dampingfactor>0</wtx:dampingfactor>

    <wtx:label>value-v1-5492edf60d2a6b</wtx:label>
    <wtx:spice/>
    <wtx:flip/>
    <wtx:model/>
    <wtx:measure/>
</wtx:part>
</metadata>
  <path d="m50.381,19.923a20.203,19.698,0,1,1,-40.406,0,20.203,19.698,0,1,1,40.406,0z" fill="none" id="path2816"/>
  <path d="M10,20,0,20" id="path2818"/>
  <path d="m50,20,10,0" id="path2820"/>
  <path fill="none" stroke-width="1px" d="M15.763,19.492c10.699,23.004,16.424-16.073,27.966,0.169" id="path2819"/>
<text stroke-width="0px" font-size="12px" id="text5025" y="20" x="0">+</text>
<text stroke-width="0px" font-size="12px" id="text5029" y="15" x="53">_</text>

</g><text x="120" y="10" font-size="12" fill="black" stroke-width="0px" id="value-r1-d6fb851241887c"><tspan dx="-14" dy="15">1K</tspan><tspan dx="0" dy="0">r1</tspan></text><g stroke-width="2px" stroke="black" transform="matrix(1,0,0,1,120,10)">
<metadata class="part">
<wtx:part xmlns:wtx="/home/niel/Desktop/webtronics">
    <wtx:pins>
		<wtx:analog>
		  <wtx:node y="10" x="0" index="1"/>
		  <wtx:node y="10" x="40" index="2"/>
		</wtx:analog>
    </wtx:pins>
    <wtx:id>r1</wtx:id>
    <wtx:type>r</wtx:type>
    <wtx:name>resistor</wtx:name>
    <wtx:category>resistors</wtx:category>
    <wtx:value>1K</wtx:value>
    <wtx:label>value-r1-d6fb851241887c</wtx:label>
    <wtx:spice/>
    <wtx:flip/>
    <wtx:model/>
</wtx:part>
</metadata>

    <path fill="none" id="path3444" d="M 5.1400289,10.973441 7.5009997,5.0436578 10.530362,14.908323 14.248435,4.3282724 18.324457,14.77488 21.761826,4.4617163 25.849828,14.589134 29.504786,4.5222528 33.128938,14.818135 35.33864,10.115602"/>
    <path id="path2159" d="m 0,10 5.424147,0"/>
    <path id="path2161" d="m 40,10 -5.459106,0"/>
    <rect visibility="hidden" id="rect2162" y="0" x="0" height="20" width="40"/>

  </g><text x="220" y="60" font-size="12" fill="black" stroke-width="0px" id="value-d1-1e310e593a5f1e"><tspan dx="-16" dy="15">1n4007</tspan><tspan dx="0" dy="0">d1</tspan></text><g stroke-width="2px" stroke="#000" class="diode" id="D" transform="matrix(6.123234262925839e-17,1,-1,6.123234262925839e-17,250,50)">
<metadata class="part">
    <wtx:part xmlns:wtx="/home/niel/Desktop/webtronics">
    <wtx:pins>
        <wtx:analog>
                <wtx:node y="10" x="40" index="1"/>
                <wtx:node y="10" x="0" index="2"/>
        </wtx:analog>
    </wtx:pins>
    <wtx:id>d1</wtx:id>

    <wtx:type>d</wtx:type>
    <wtx:name>diode</wtx:name>
    <wtx:category>diodes</wtx:category>
    <wtx:flip/>
    <wtx:value>1n4007</wtx:value>
    <wtx:label>value-d1-1e310e593a5f1e</wtx:label>
    <wtx:spice/>
    <wtx:model>1n4007.lib</wtx:model>
    </wtx:part>
</metadata>
  <path d="m11.059,19.249,0-18.37" id="path2210"/>
  <path d="M0,10h40" id="path3202"/>
  <path d="m11.298,10,17.776-8.5486,0,17.1l-17.776-8.551z" fill="#000" id="path2220"/>
 </g><text x="300" y="60" font-size="12" fill="black" stroke-width="0px" id="value-d2-b380f82c7120c3"><tspan dx="-16" dy="15">1n4007</tspan><tspan dx="0" dy="0">d2</tspan></text><g stroke-width="2px" stroke="#000" class="diode" id="D" transform="matrix(-1.8369702788777518e-16,-1,1,-1.8369702788777518e-16,310,90)">
<metadata class="part">
    <wtx:part xmlns:wtx="/home/niel/Desktop/webtronics">
    <wtx:pins>
        <wtx:analog>
                <wtx:node y="10" x="40" index="1"/>
                <wtx:node y="10" x="0" index="2"/>
        </wtx:analog>
    </wtx:pins>
    <wtx:id>d2</wtx:id>

    <wtx:type>d</wtx:type>
    <wtx:name>diode</wtx:name>
    <wtx:category>diodes</wtx:category>
    <wtx:flip/>
    <wtx:value>1n4007</wtx:value>
    <wtx:label>value-d2-b380f82c7120c3</wtx:label>
    <wtx:spice/>
    <wtx:model>1n4007.lib</wtx:model>
    </wtx:part>
</metadata>
  <path d="m11.059,19.249,0-18.37" id="path2210"/>
  <path d="M0,10h40" id="path3202"/>
  <path d="m11.298,10,17.776-8.5486,0,17.1l-17.776-8.551z" fill="#000" id="path2220"/>
 </g><text x="160" y="159.9998779296875" font-size="12" fill="black" stroke-width="0px" id="value-gnd-71551e064cf51c"><tspan dx="0" dy="0">gnd</tspan></text><g class="ground" id="Gnd" stroke-width="2px" stroke="black" connects="10,0" transform="matrix(1,0,0,1,160,160)">
<metadata>
<wtx:part xmlns:wtx="/home/niel/Desktop/webtronics">
    <wtx:pins>
        <wtx:analog>
            <wtx:node y="0" x="10" index="1"/>
        </wtx:analog>
    </wtx:pins>
    <wtx:id>gnd</wtx:id>
    <wtx:type>gnd</wtx:type>
    <wtx:name>ground</wtx:name>
    <wtx:category>sources</wtx:category>
    <wtx:flip/>
    <wtx:value/>
    <wtx:label>value-gnd-71551e064cf51c</wtx:label>
    <wtx:spice/>
    <wtx:model/>
</wtx:part>
</metadata>

    <path id="path3694" d="M 10,0 L 10,11"/>
    <path id="path3696" d="M 0.50000006,11.834153 L 19.671275,11.834153"/>
    <path id="path3698" d="M 2.6480823,14.5 L 17.732881,14.5"/>
    <path id="path3700" d="M 5.802873,17.5 L 14.648082,17.5"/>
  </g><circle cx="170" cy="151" r="3" stroke="black" fill="black"/><circle cx="240" cy="20" r="3" stroke="black" fill="black"/><circle cx="240" cy="151" r="3" stroke="black" fill="black"/><line x1="40" y1="50" x2="40" y2="19" stroke="black" stroke-width="2"/><line x1="40" y1="19" x2="120" y2="19" stroke="black" stroke-width="2"/><line x1="120" y1="19" x2="120" y2="20" stroke="black" stroke-width="2"/><line x1="160" y1="20" x2="320" y2="20" stroke="black" stroke-width="2"/><line x1="320" y1="20" x2="320" y2="50" stroke="black" stroke-width="2"/><line x1="320" y1="90" x2="320" y2="151" stroke="black" stroke-width="2"/><line x1="320" y1="151" x2="40" y2="151" stroke="black" stroke-width="2"/><line x1="40" y1="151" x2="40" y2="110" stroke="black" stroke-width="2"/><line x1="320" y1="151" x2="170" y2="151" stroke="black" stroke-width="2"/><line x1="170" y1="151" x2="40" y2="151" stroke="black" stroke-width="2"/><line x1="170" y1="160" x2="170" y2="151" stroke="black" stroke-width="2"/><line x1="160" y1="20" x2="240" y2="20" stroke="black" stroke-width="2"/><line x1="240" y1="20" x2="320" y2="20" stroke="black" stroke-width="2"/><line x1="240" y1="50" x2="240" y2="20" stroke="black" stroke-width="2"/><line x1="320" y1="151" x2="240" y2="151" stroke="black" stroke-width="2"/><line x1="240" y1="151" x2="170" y2="151" stroke="black" stroke-width="2"/><line x1="240" y1="90" x2="240" y2="151" stroke="black" stroke-width="2"/></svg>