<?xml version='1.0' ?>
<!--Created by webtronics 0.1-->
<svg xmlns="http://www.w3.org/2000/svg" width="265px" height="166.75px"><rect x="0" y="0" fill="white" width="265px" height="166.75px"/><text x="25" y="59.2498779296875" font-size="12" fill="black" stroke-width="0px" id="value-v1-9eb4243a2b73c3"><tspan dx="-15" dy="15">1</tspan><tspan dx="0" dy="0">v1</tspan></text><g class="battery" id="v" stroke-width="2px" stroke="black" transform="matrix(6.123234262925839e-17,1,-1,6.123234262925839e-17,65,49.25)">
<metadata class="part">
<wtx:part xmlns:wtx="/home/niel/Desktop/webtronics">
    <wtx:pins>
    <wtx:analog>
        <wtx:node y="10" x="0" index="1"/>
        <wtx:node y="10" x="50" index="2"/>
    </wtx:analog>
    </wtx:pins>
    <wtx:id>v1</wtx:id>
    <wtx:type>v</wtx:type>
    <wtx:name>battery</wtx:name>
    <wtx:category>sources</wtx:category>
    <wtx:value>1</wtx:value>
    <wtx:label>value-v1-9eb4243a2b73c3</wtx:label>
    <wtx:spice/>
    <wtx:flip/>
    <wtx:model/>
</wtx:part>
</metadata>
      <path id="path5009" d="M 0,10 L 17,10"/>
      <path id="path5019" d="M 32,10 L 50,10"/>
      <path id="path5011" d="M 17.836609,0.68314333 L 17.718673,19.199113"/>
      <path id="path5013" d="M 22.436119,3.7494823 L 22.436119,15.071349"/>
      <path id="path5015" d="M 27.507371,0.68314333 L 27.507371,19.552922"/>
      <path id="path5017" d="M 31.753072,3.8674183 L 31.635136,15.425157"/>
      <text stroke-width="0px" font-size="12px" id="text5025" y="8.5261526" x="8.2167969">+</text>
      <text stroke-width="0px" font-size="12px" id="text5029" y="0.5234375" x="34.111794">_</text>
  </g><text x="115" y="9.25" font-size="12" fill="black" stroke-width="0px" id="value-d1-2364d7f6ac2677"><tspan dx="-16" dy="15">1n4007</tspan><tspan dx="0" dy="0">d1</tspan></text><g stroke-width="2px" stroke="#000" class="diode" id="D" transform="matrix(-1,1.2246468525851679e-16,-1.2246468525851679e-16,-1,155,29.25)">
<metadata class="part">
    <wtx:part xmlns:wtx="/home/niel/Desktop/webtronics">
    <wtx:pins>
        <wtx:analog>
                <wtx:node y="10" x="40" index="1"/>
                <wtx:node y="10" x="0" index="2"/>
        </wtx:analog>
    </wtx:pins>
    <wtx:id>d1</wtx:id>

    <wtx:type>d</wtx:type>
    <wtx:name>diode</wtx:name>
    <wtx:category>diodes</wtx:category>
    <wtx:flip/>
    <wtx:value>1n4007</wtx:value>
    <wtx:label>value-d1-2364d7f6ac2677</wtx:label>
    <wtx:spice/>
    <wtx:model>1n4007.lib</wtx:model>
    </wtx:part>
</metadata>
  <path d="m11.059,19.249,0-18.37" id="path2210"/>
  <path d="M0,10h40" id="path3202"/>
  <path d="m11.298,10,17.776-8.5486,0,17.1l-17.776-8.551z" fill="#000" id="path2220"/>
 </g><text x="225" y="59.25" font-size="12" fill="black" stroke-width="0px" id="value-r1-161ec958340c5e"><tspan dx="-14" dy="15">1K</tspan><tspan dx="0" dy="0">r1</tspan></text><g stroke-width="2px" stroke="black" transform="matrix(6.123234262925839e-17,1,-1,6.123234262925839e-17,255,49.25)">
<metadata class="part">
<wtx:part xmlns:wtx="/home/niel/Desktop/webtronics">
    <wtx:pins>
		<wtx:analog>
		  <wtx:node y="10" x="0" index="1"/>
		  <wtx:node y="10" x="40" index="2"/>
		</wtx:analog>
    </wtx:pins>
    <wtx:id>r1</wtx:id>
    <wtx:type>r</wtx:type>
    <wtx:name>resistor</wtx:name>
    <wtx:category>resistors</wtx:category>
    <wtx:value>1K</wtx:value>
    <wtx:label>value-r1-161ec958340c5e</wtx:label>
    <wtx:spice/>
    <wtx:flip/>
    <wtx:model/>
</wtx:part>
</metadata>

    <path fill="none" id="path3444" d="M 5.1400289,10.973441 7.5009997,5.0436578 10.530362,14.908323 14.248435,4.3282724 18.324457,14.77488 21.761826,4.4617163 25.849828,14.589134 29.504786,4.5222528 33.128938,14.818135 35.33864,10.115602"/>
    <path id="path2159" d="m 0,10 5.424147,0"/>
    <path id="path2161" d="m 40,10 -5.459106,0"/>
    <rect visibility="hidden" id="rect2162" y="0" x="0" height="20" width="40"/>

  </g><text x="135" y="139.2498779296875" font-size="12" fill="black" stroke-width="0px" id="value-gnd-f6fce65bc8471e"><tspan dx="0" dy="0">gnd</tspan></text><g class="ground" id="Gnd" stroke-width="2px" stroke="black" connects="10,0" transform="matrix(1,0,0,1,135,139.25)">
<metadata>
<wtx:part xmlns:wtx="/home/niel/Desktop/webtronics">
    <wtx:pins>
        <wtx:analog>
            <wtx:node y="0" x="10" index="1"/>
        </wtx:analog>
    </wtx:pins>
    <wtx:id>gnd</wtx:id>
    <wtx:type>gnd</wtx:type>
    <wtx:name>ground</wtx:name>
    <wtx:category>sources</wtx:category>
    <wtx:flip/>
    <wtx:value/>
    <wtx:label>value-gnd-f6fce65bc8471e</wtx:label>
    <wtx:spice/>
    <wtx:model/>
</wtx:part>
</metadata>

    <path id="path3694" d="M 10,0 L 10,11"/>
    <path id="path3696" d="M 0.50000006,11.834153 L 19.671275,11.834153"/>
    <path id="path3698" d="M 2.6480823,14.5 L 17.732881,14.5"/>
    <path id="path3700" d="M 5.802873,17.5 L 14.648082,17.5"/>
  </g><circle cx="144" cy="122.25" r="3" stroke="black" fill="black"/><line x1="55" y1="49.25" x2="55" y2="20.25" stroke="black" stroke-width="2"/><line x1="55" y1="20.25" x2="115" y2="20.25" stroke="black" stroke-width="2"/><line x1="115" y1="20.25" x2="115" y2="19.25" stroke="black" stroke-width="2"/><line x1="155" y1="19.25" x2="245" y2="19.25" stroke="black" stroke-width="2"/><line x1="245" y1="19.25" x2="245" y2="49.25" stroke="black" stroke-width="2"/><line x1="245" y1="89.25" x2="245" y2="122.25" stroke="black" stroke-width="2"/><line x1="245" y1="122.25" x2="55" y2="122.25" stroke="black" stroke-width="2"/><line x1="55" y1="122.25" x2="55" y2="99.25" stroke="black" stroke-width="2"/><line x1="245" y1="122.25" x2="144" y2="122.25" stroke="black" stroke-width="2"/><line x1="144" y1="122.25" x2="55" y2="122.25" stroke="black" stroke-width="2"/><line x1="145" y1="139.25" x2="145" y2="122.25" stroke="black" stroke-width="2"/><line x1="145" y1="122.25" x2="144" y2="122.25" stroke="black" stroke-width="2"/></svg>