<?xml version='1.0' ?>
<!--Created by webtronics 0.1-->
<svg xmlns="http://www.w3.org/2000/svg" width="454px" height="267.5px"><rect x="0" y="0" fill="white" width="454px" height="267.5px"/><text x="210" y="129.9998779296875" font-size="12" fill="black" stroke-width="0px" id="value-x1-5b95fe40e83ae2"><tspan dx="-15" dy="15">ua741</tspan><tspan dx="0" dy="0">x1</tspan></text><g class="op-amp" id="x" transform="matrix(1,1.2246468525851679e-16,1.2246468525851679e-16,-1,210,190)">
<metadata class="part">
<wtx:part xmlns:wtx="/home/niel/Desktop/webtronics">
    <wtx:pins>
		<wtx:analog>
<!--
all opamp models must be in this order
* CONNECTIONS:   NON-INVERTING INPUT
*                | INVERTING INPUT
*                | | POSITIVE POWER SUPPLY
*                | | | NEGATIVE POWER SUPPLY
*                | | | | OPEN COLLECTOR OUTPUT
*                | | | | |
.SUBCKT LM339    1 2 3 4 5
-->
			<wtx:node y="10" x="0" index="1"/>
			<wtx:node y="50" x="0" index="2"/>
			
			<wtx:node y="30" x="60" index="3"/>
		</wtx:analog>
    </wtx:pins>
    <wtx:id>x1</wtx:id>
    <wtx:type>x</wtx:type>
    <wtx:name>op-amp</wtx:name>
    <wtx:category>subcircuits</wtx:category>
    <wtx:value>ua741</wtx:value>
    <wtx:spice/>
    <wtx:label>value-x1-5b95fe40e83ae2</wtx:label>
    <wtx:flip>true</wtx:flip>
    <wtx:model>ua741.sub</wtx:model>
</wtx:part>
</metadata>



<path d=" M 0.00 0.00 L 8.99 0.00 C 9.01 3.00 8.99 6.00 9.00 9.00 C 6.00 8.98 3.00 9.01 0.00 9.00 L 0.00 0.00 Z" fill="#ffffff"/>
<path d=" M 8.99 0.00 L 11.44 0.00 C 23.93 8.97 36.11 18.37 48.40 27.61 C 51.73 30.09 56.16 28.65 60.00 29.00 L 60.00 31.00 C 56.17 31.35 51.73 29.91 48.41 32.39 C 36.13 41.65 23.95 51.03 11.46 60.00 L 8.99 60.00 C 9.01 57.00 8.99 54.00 9.00 51.00 C 6.00 51.01 3.00 50.99 0.00 51.00 L 0.00 49.00 C 3.00 49.01 6.00 48.98 9.00 49.00 C 9.00 36.33 9.00 23.67 9.00 11.00 C 6.00 11.01 3.00 10.99 0.00 11.00 L 0.00 9.00 C 3.00 9.01 6.00 8.98 9.00 9.00 C 8.99 6.00 9.01 3.00 8.99 0.00 Z" fill="#000000"/>
<path d=" M 11.44 0.00 L 60.00 0.00 L 60.00 29.00 C 56.16 28.65 51.73 30.09 48.40 27.61 C 36.11 18.37 23.93 8.97 11.44 0.00 Z" fill="#ffffff"/>
<path d=" M 11.00 1.72 C 23.24 11.47 35.93 20.69 48.51 30.00 C 35.93 39.31 23.24 48.53 11.00 58.28 C 11.00 39.43 11.00 20.57 11.00 1.72 Z" fill="#ffffff"/>
<path d=" M 0.00 11.00 C 3.00 10.99 6.00 11.01 9.00 11.00 C 9.00 23.67 9.00 36.33 9.00 49.00 C 6.00 48.98 3.00 49.01 0.00 49.00 L 0.00 11.00 Z" fill="#ffffff"/>
<path d=" M 15.40 16.95 C 17.84 16.26 19.97 15.01 21.00 12.58 C 21.00 13.40 20.98 15.03 20.98 15.85 C 21.88 15.95 23.69 16.15 24.60 16.26 C 23.48 16.70 22.32 17.01 21.13 17.21 C 21.03 18.05 20.82 19.73 20.72 20.57 C 20.25 19.43 19.94 18.26 19.78 17.03 C 18.32 17.04 16.86 17.01 15.40 16.95 Z" fill="#000000"/>
<path d=" M 48.41 32.39 C 51.73 29.91 56.17 31.35 60.00 31.00 L 60.00 60.00 L 11.46 60.00 C 23.95 51.03 36.13 41.65 48.41 32.39 Z" fill="#ffffff"/>
<path d=" M 15.09 47.30 C 16.71 46.88 19.99 46.22 20.90 47.70 C 19.29 48.12 16.01 48.78 15.09 47.30 Z" fill="#000000"/>
<path d=" M 0.00 51.00 C 3.00 50.99 6.00 51.01 9.00 51.00 C 8.99 54.00 9.01 57.00 8.99 60.00 L 0.00 60.00 L 0.00 51.00 Z" fill="#ffffff"/>
</g><text x="90" y="130" font-size="12" fill="black" stroke-width="0px" id="value-r1-66ad8fa27be07e"><tspan dx="-14" dy="15">10k</tspan><tspan dx="0" dy="0">r1</tspan></text><g stroke-width="2px" stroke="black" transform="matrix(1,0,0,1,90,130)">
<metadata class="part">
<wtx:part xmlns:wtx="/home/niel/Desktop/webtronics">
    <wtx:pins>
		<wtx:analog>
		  <wtx:node y="10" x="0" index="1"/>
		  <wtx:node y="10" x="40" index="2"/>
		</wtx:analog>
    </wtx:pins>
    <wtx:id>r1</wtx:id>
    <wtx:type>r</wtx:type>
    <wtx:name>resistor</wtx:name>
    <wtx:category>resistors</wtx:category>
    <wtx:value>10k</wtx:value>
    <wtx:label>value-r1-66ad8fa27be07e</wtx:label>
    <wtx:spice/>
    <wtx:flip/>
    <wtx:model/>
</wtx:part>
</metadata>

    <path fill="none" id="path3444" d="M 5.1400289,10.973441 7.5009997,5.0436578 10.530362,14.908323 14.248435,4.3282724 18.324457,14.77488 21.761826,4.4617163 25.849828,14.589134 29.504786,4.5222528 33.128938,14.818135 35.33864,10.115602"/>
    <path id="path2159" d="m 0,10 5.424147,0"/>
    <path id="path2161" d="m 40,10 -5.459106,0"/>
    <rect visibility="hidden" id="rect2162" y="0" x="0" height="20" width="40"/>

  </g><text x="140" y="190" font-size="12" fill="black" stroke-width="0px" id="value-r2-7d31a345e48296"><tspan dx="-14" dy="15">1k</tspan><tspan dx="0" dy="0">r2</tspan></text><g stroke-width="2px" stroke="black" transform="matrix(6.123234262925839e-17,1,-1,6.123234262925839e-17,170,180)">
<metadata class="part">
<wtx:part xmlns:wtx="/home/niel/Desktop/webtronics">
    <wtx:pins>
		<wtx:analog>
		  <wtx:node y="10" x="0" index="1"/>
		  <wtx:node y="10" x="40" index="2"/>
		</wtx:analog>
    </wtx:pins>
    <wtx:id>r2</wtx:id>
    <wtx:type>r</wtx:type>
    <wtx:name>resistor</wtx:name>
    <wtx:category>resistors</wtx:category>
    <wtx:value>1k</wtx:value>
    <wtx:label>value-r2-7d31a345e48296</wtx:label>
    <wtx:spice/>
    <wtx:flip/>
    <wtx:model/>
</wtx:part>
</metadata>

    <path fill="none" id="path3444" d="M 5.1400289,10.973441 7.5009997,5.0436578 10.530362,14.908323 14.248435,4.3282724 18.324457,14.77488 21.761826,4.4617163 25.849828,14.589134 29.504786,4.5222528 33.128938,14.818135 35.33864,10.115602"/>
    <path id="path2159" d="m 0,10 5.424147,0"/>
    <path id="path2161" d="m 40,10 -5.459106,0"/>
    <rect visibility="hidden" id="rect2162" y="0" x="0" height="20" width="40"/>

  </g><text x="220" y="10" font-size="12" fill="black" stroke-width="0px" id="value-r3-f290a411c49f02"><tspan dx="-14" dy="15">100k</tspan><tspan dx="0" dy="0">r3</tspan></text><g stroke-width="2px" stroke="black" transform="matrix(1,0,0,1,220,10)">
<metadata class="part">
<wtx:part xmlns:wtx="/home/niel/Desktop/webtronics">
    <wtx:pins>
		<wtx:analog>
		  <wtx:node y="10" x="0" index="1"/>
		  <wtx:node y="10" x="40" index="2"/>
		</wtx:analog>
    </wtx:pins>
    <wtx:id>r3</wtx:id>
    <wtx:type>r</wtx:type>
    <wtx:name>resistor</wtx:name>
    <wtx:category>resistors</wtx:category>
    <wtx:value>100k</wtx:value>
    <wtx:label>value-r3-f290a411c49f02</wtx:label>
    <wtx:spice/>
    <wtx:flip/>
    <wtx:model/>
</wtx:part>
</metadata>

    <path fill="none" id="path3444" d="M 5.1400289,10.973441 7.5009997,5.0436578 10.530362,14.908323 14.248435,4.3282724 18.324457,14.77488 21.761826,4.4617163 25.849828,14.589134 29.504786,4.5222528 33.128938,14.818135 35.33864,10.115602"/>
    <path id="path2159" d="m 0,10 5.424147,0"/>
    <path id="path2161" d="m 40,10 -5.459106,0"/>
    <rect visibility="hidden" id="rect2162" y="0" x="0" height="20" width="40"/>

  </g><text x="360" y="150" font-size="12" fill="black" stroke-width="0px" id="value-r4-bcdc1d0004fcf4"><tspan dx="-14" dy="15">1k</tspan><tspan dx="0" dy="0">r4</tspan></text><g stroke-width="2px" stroke="black" transform="matrix(1,0,0,1,360,150)">
<metadata class="part">
<wtx:part xmlns:wtx="/home/niel/Desktop/webtronics">
    <wtx:pins>
		<wtx:analog>
		  <wtx:node y="10" x="0" index="1"/>
		  <wtx:node y="10" x="40" index="2"/>
		</wtx:analog>
    </wtx:pins>
    <wtx:id>r4</wtx:id>
    <wtx:type>r</wtx:type>
    <wtx:name>resistor</wtx:name>
    <wtx:category>resistors</wtx:category>
    <wtx:value>1k</wtx:value>
    <wtx:label>value-r4-bcdc1d0004fcf4</wtx:label>
    <wtx:spice/>
    <wtx:flip/>
    <wtx:model/>
</wtx:part>
</metadata>

    <path fill="none" id="path3444" d="M 5.1400289,10.973441 7.5009997,5.0436578 10.530362,14.908323 14.248435,4.3282724 18.324457,14.77488 21.761826,4.4617163 25.849828,14.589134 29.504786,4.5222528 33.128938,14.818135 35.33864,10.115602"/>
    <path id="path2159" d="m 0,10 5.424147,0"/>
    <path id="path2161" d="m 40,10 -5.459106,0"/>
    <rect visibility="hidden" id="rect2162" y="0" x="0" height="20" width="40"/>

  </g><text x="220" y="60" font-size="12" fill="black" stroke-width="0px" id="value-c1-0a6d7df6b00dff"><tspan dx="-15" dy="15">100n</tspan><tspan dx="0" dy="0">c1</tspan></text><g class="capacitor" id="C" stroke-width="2px" stroke="black" connects="0,10;30,10" transform="matrix(1,0,0,1,220,60)">
<metadata class="part">
<wtx:part xmlns:wtx="/home/niel/Desktop/webtronics">
    <wtx:pins>
		<wtx:analog>
			<wtx:node y="10" x="0" index="1"/>
			<wtx:node y="10" x="30" index="2"/>
		</wtx:analog>
    </wtx:pins>
    <wtx:id>c1</wtx:id>
    <wtx:type>c</wtx:type>
    <wtx:name>capacitor</wtx:name>
    <wtx:category>capacitors</wtx:category>
    <wtx:value>100n</wtx:value>
    <wtx:label>value-c1-0a6d7df6b00dff</wtx:label>
    <wtx:spice/>
    <wtx:flip/>
    <wtx:model/>
</wtx:part>
</metadata>
    <path id="path3412" d="M 10,0 10,20"/>
    <path id="path3414" d="m 20,0 0,20"/>
    <path id="path3420" d="m 20,10 10,0"/>
    <path id="path3422" d="M 10,10 0,10"/>
  </g><text x="10" y="149.9998779296875" font-size="12" fill="black" stroke-width="0px" id="value-v1-eb74a0e6bf2a79"><tspan dx="0" dy="0">v1</tspan></text><g class="pwl" id="Pwl" transform="matrix(-1.8369702788777518e-16,-1,1,-1.8369702788777518e-16,20,200)">


<!--
    pwlval1=first time part T1
    pwlval2=first voltage part V1
    pwlval3=T2
    pwlval4=V2
    pwlval5=T3
    pwlval6=V3
    pwlval7=T4
    pwlval8=V4
    -->

    
<metadata class="part">
<wtx:part xmlns:wtx="http://code.google.com/p/webtronics">
    <wtx:pins>
    <wtx:analog>
                <wtx:node y="20" x="0" index="1"/>
                <wtx:node y="20" x="60" index="2"/>
    </wtx:analog>
    </wtx:pins>
    <wtx:id>v1</wtx:id>
    <wtx:type>v</wtx:type>
    <wtx:name>pwl</wtx:name>
    <wtx:category>sources</wtx:category>
    <wtx:value/>

    <wtx:pwlval1>0m</wtx:pwlval1>
    <wtx:pwlval2>0</wtx:pwlval2>
    <wtx:pwlval3>0.5m</wtx:pwlval3>
    <wtx:pwlval4>5</wtx:pwlval4>
    <wtx:pwlval5>25m</wtx:pwlval5>
    <wtx:pwlval6>5</wtx:pwlval6>
    <wtx:pwlval7>25.5m</wtx:pwlval7>

    <wtx:pwlval8>0</wtx:pwlval8>


    <wtx:label>value-v1-eb74a0e6bf2a79</wtx:label>
    <wtx:spice/>
    <wtx:flip/>
    <wtx:model/>
</wtx:part>
</metadata>





<path d=" M 0.00 0.00 L 60.00 0.00 L 60.00 19.00 C 55.63 19.00 51.25 18.97 46.88 19.05 C 46.14 13.35 43.15 7.80 38.02 4.92 C 30.21 -0.51 18.48 2.78 13.93 10.98 C 11.98 13.26 11.92 16.30 11.12 19.05 C 7.42 18.98 3.71 19.00 0.00 19.00 L 0.00 0.00 Z" fill="#ffffff"/>
<path d=" M 13.93 10.98 C 18.48 2.78 30.21 -0.51 38.02 4.92 C 43.15 7.80 46.14 13.35 46.88 19.05 C 51.25 18.97 55.63 19.00 60.00 19.00 L 60.00 21.00 C 55.62 21.00 51.23 21.02 46.85 20.97 C 46.09 29.36 39.19 36.93 30.66 37.64 C 20.97 38.83 11.90 30.52 11.16 20.97 C 7.44 21.01 3.72 21.00 0.00 21.00 L 0.00 19.00 C 3.71 19.00 7.42 18.98 11.12 19.05 C 11.92 16.30 11.98 13.26 13.93 10.98 Z" fill="#000000"/>
<path d=" M 28.25 3.15 C 30.45 2.91 32.57 4.05 34.78 4.17 C 39.08 5.83 42.38 9.51 44.67 13.46 C 45.05 15.66 45.53 17.84 45.97 20.04 C 45.50 22.21 45.05 24.39 44.65 26.57 C 42.53 30.39 39.39 33.53 35.57 35.66 C 33.37 36.06 31.18 36.51 29.00 36.97 C 26.81 36.51 24.63 36.06 22.43 35.66 C 18.61 33.53 15.47 30.39 13.35 26.57 C 12.95 24.39 12.50 22.21 12.03 20.03 C 12.47 17.84 12.95 15.66 13.33 13.46 C 15.46 9.61 18.62 6.46 22.46 4.33 C 24.39 3.94 26.34 3.67 28.25 3.15 Z" fill="#ffffff"/>
<path d=" M 20.36 10.85 C 24.06 11.65 27.69 12.79 31.43 13.46 C 29.65 14.76 27.50 13.55 25.62 13.22 C 23.70 12.89 21.83 12.17 20.36 10.85 Z" fill="#000000"/>
<path d=" M 24.99 18.15 C 27.91 16.85 30.35 14.52 33.47 13.75 C 31.77 16.31 28.64 17.09 26.01 18.34 C 26.00 20.52 26.00 22.70 25.98 24.88 C 28.77 26.74 32.43 27.40 34.54 30.18 C 31.30 28.80 28.26 26.98 25.00 25.63 C 25.00 23.14 25.00 20.64 24.99 18.15 Z" fill="#000000"/>
<path d=" M 38.99 16.00 L 40.00 15.98 C 40.00 17.32 40.00 18.66 40.01 20.00 C 41.34 20.00 42.68 20.00 44.02 19.99 L 44.00 20.90 C 41.99 20.94 39.55 20.53 39.51 23.32 C 39.31 22.80 38.90 21.76 38.70 21.25 C 37.57 20.99 36.48 20.64 35.41 20.20 C 36.32 20.12 38.13 19.94 39.03 19.86 C 39.01 18.57 39.00 17.28 38.99 16.00 Z" fill="#000000"/>
<path d=" M 18.30 17.09 C 19.80 18.34 19.07 21.98 18.70 23.91 C 17.20 22.66 17.93 19.02 18.30 17.09 Z" fill="#000000"/>
<path d=" M 0.00 21.00 C 3.72 21.00 7.44 21.01 11.16 20.97 C 11.90 30.52 20.97 38.83 30.66 37.64 C 39.19 36.93 46.09 29.36 46.85 20.97 C 51.23 21.02 55.62 21.00 60.00 21.00 L 60.00 40.00 L 24.81 40.00 C 26.25 37.94 22.80 37.85 23.96 40.00 L 0.00 40.00 L 0.00 21.00 Z" fill="#ffffff"/>
<path d=" M 23.96 40.00 C 22.80 37.85 26.25 37.94 24.81 40.00 L 23.96 40.00 Z" fill="#000000"/>
</g><text x="30" y="229.9998779296875" font-size="12" fill="black" stroke-width="0px" id="value-gnd-10b2bb49c4437f"><tspan dx="0" dy="0">gnd</tspan></text><g class="ground" id="Gnd" stroke-width="2px" stroke="black" connects="10,0" transform="matrix(1,0,0,1,30,230)">
<metadata>
<wtx:part xmlns:wtx="/home/niel/Desktop/webtronics">
    <wtx:pins>
        <wtx:analog>
            <wtx:node y="0" x="10" index="1"/>
        </wtx:analog>
    </wtx:pins>
    <wtx:id>gnd</wtx:id>
    <wtx:type>gnd</wtx:type>
    <wtx:name>ground</wtx:name>
    <wtx:category>sources</wtx:category>
    <wtx:flip/>
    <wtx:value/>
    <wtx:label>value-gnd-10b2bb49c4437f</wtx:label>
    <wtx:spice/>
    <wtx:model/>
</wtx:part>
</metadata>

    <path id="path3694" d="M 10,0 L 10,11"/>
    <path id="path3696" d="M 0.50000006,11.834153 L 19.671275,11.834153"/>
    <path id="path3698" d="M 2.6480823,14.5 L 17.732881,14.5"/>
    <path id="path3700" d="M 5.802873,17.5 L 14.648082,17.5"/>
  </g><text x="150" y="239.9998779296875" font-size="12" fill="black" stroke-width="0px" id="value-gnd-186ed3440e2d6e"><tspan dx="0" dy="0">gnd</tspan></text><g class="ground" id="Gnd" stroke-width="2px" stroke="black" connects="10,0" transform="matrix(1,0,0,1,150,240)">
<metadata>
<wtx:part xmlns:wtx="/home/niel/Desktop/webtronics">
    <wtx:pins>
        <wtx:analog>
            <wtx:node y="0" x="10" index="1"/>
        </wtx:analog>
    </wtx:pins>
    <wtx:id>gnd</wtx:id>
    <wtx:type>gnd</wtx:type>
    <wtx:name>ground</wtx:name>
    <wtx:category>sources</wtx:category>
    <wtx:flip/>
    <wtx:value/>
    <wtx:label>value-gnd-186ed3440e2d6e</wtx:label>
    <wtx:spice/>
    <wtx:model/>
</wtx:part>
</metadata>

    <path id="path3694" d="M 10,0 L 10,11"/>
    <path id="path3696" d="M 0.50000006,11.834153 L 19.671275,11.834153"/>
    <path id="path3698" d="M 2.6480823,14.5 L 17.732881,14.5"/>
    <path id="path3700" d="M 5.802873,17.5 L 14.648082,17.5"/>
  </g><text x="420" y="169.9998779296875" font-size="12" fill="black" stroke-width="0px" id="value-gnd-a5a3fce73ca1ba"><tspan dx="0" dy="0">gnd</tspan></text><g class="ground" id="Gnd" stroke-width="2px" stroke="black" connects="10,0" transform="matrix(1,0,0,1,420,170)">
<metadata>
<wtx:part xmlns:wtx="/home/niel/Desktop/webtronics">
    <wtx:pins>
        <wtx:analog>
            <wtx:node y="0" x="10" index="1"/>
        </wtx:analog>
    </wtx:pins>
    <wtx:id>gnd</wtx:id>
    <wtx:type>gnd</wtx:type>
    <wtx:name>ground</wtx:name>
    <wtx:category>sources</wtx:category>
    <wtx:flip/>
    <wtx:value/>
    <wtx:label>value-gnd-a5a3fce73ca1ba</wtx:label>
    <wtx:spice/>
    <wtx:model/>
</wtx:part>
</metadata>

    <path id="path3694" d="M 10,0 L 10,11"/>
    <path id="path3696" d="M 0.50000006,11.834153 L 19.671275,11.834153"/>
    <path id="path3698" d="M 2.6480823,14.5 L 17.732881,14.5"/>
    <path id="path3700" d="M 5.802873,17.5 L 14.648082,17.5"/>
  </g><circle cx="146" cy="140" r="3" stroke="black" fill="black"/><circle cx="291" cy="160" r="3" stroke="black" fill="black"/><circle cx="291" cy="70" r="3" stroke="black" fill="black"/><circle cx="146" cy="70" r="3" stroke="black" fill="black"/><line x1="40" y1="200" x2="40" y2="230" stroke="black" stroke-width="2"/><line x1="40" y1="140" x2="90" y2="140" stroke="black" stroke-width="2"/><line x1="130" y1="140" x2="210" y2="140" stroke="black" stroke-width="2"/><line x1="160" y1="180" x2="210" y2="180" stroke="black" stroke-width="2"/><line x1="160" y1="220" x2="160" y2="240" stroke="black" stroke-width="2"/><line x1="270" y1="160" x2="360" y2="160" stroke="black" stroke-width="2"/><line x1="400" y1="160" x2="430" y2="160" stroke="black" stroke-width="2"/><line x1="430" y1="160" x2="430" y2="170" stroke="black" stroke-width="2"/><line x1="220" y1="20" x2="146" y2="20" stroke="black" stroke-width="2"/><line x1="130" y1="140" x2="146" y2="140" stroke="black" stroke-width="2"/><line x1="146" y1="140" x2="210" y2="140" stroke="black" stroke-width="2"/><line x1="146" y1="20" x2="146" y2="140" stroke="black" stroke-width="2"/><line x1="260" y1="20" x2="291" y2="20" stroke="black" stroke-width="2"/><line x1="270" y1="160" x2="291" y2="160" stroke="black" stroke-width="2"/><line x1="291" y1="160" x2="360" y2="160" stroke="black" stroke-width="2"/><line x1="291" y1="20" x2="291" y2="160" stroke="black" stroke-width="2"/><line x1="291" y1="20" x2="291" y2="70" stroke="black" stroke-width="2"/><line x1="291" y1="70" x2="291" y2="160" stroke="black" stroke-width="2"/><line x1="250" y1="70" x2="291" y2="70" stroke="black" stroke-width="2"/><line x1="146" y1="20" x2="146" y2="70" stroke="black" stroke-width="2"/><line x1="146" y1="70" x2="146" y2="140" stroke="black" stroke-width="2"/><line x1="220" y1="70" x2="146" y2="70" stroke="black" stroke-width="2"/></svg>