<?xml version='1.0' ?>
<!--Created by webtronics 0.1-->
<svg xmlns="http://www.w3.org/2000/svg" width="434px" height="160px"><rect x="0" y="0" fill="white" width="434px" height="160px"/><text x="240" y="10" font-size="12" fill="black" stroke-width="0px" id="value-x1-986029f85baa02"><tspan dx="-15" dy="15">ua741</tspan><tspan dx="0" dy="0">x1</tspan></text><g class="op-amp" id="x" transform="matrix(1,-4.898586880945079e-16,4.898586880945079e-16,1,240,10)">
<metadata class="part">
<wtx:part xmlns:wtx="/home/niel/Desktop/webtronics">
    <wtx:pins>
		<wtx:analog>
<!--
all opamp models must be in this order
* CONNECTIONS:   NON-INVERTING INPUT
*                | INVERTING INPUT
*                | | POSITIVE POWER SUPPLY
*                | | | NEGATIVE POWER SUPPLY
*                | | | | OPEN COLLECTOR OUTPUT
*                | | | | |
.SUBCKT LM339    1 2 3 4 5
-->
			<wtx:node y="10" x="0" index="1"/>
			<wtx:node y="50" x="0" index="2"/>
			
			<wtx:node y="30" x="60" index="3"/>
		</wtx:analog>
    </wtx:pins>
    <wtx:id>x1</wtx:id>
    <wtx:type>x</wtx:type>
    <wtx:name>op-amp</wtx:name>
    <wtx:category>subcircuits</wtx:category>
    <wtx:value>ua741</wtx:value>
    <wtx:spice/>
    <wtx:label>value-x1-986029f85baa02</wtx:label>
    <wtx:flip>true</wtx:flip>
    <wtx:model>ua741.sub</wtx:model>
</wtx:part>
</metadata>



<path d=" M 0.00 0.00 L 8.99 0.00 C 9.01 3.00 8.99 6.00 9.00 9.00 C 6.00 8.98 3.00 9.01 0.00 9.00 L 0.00 0.00 Z" fill="#ffffff"/>
<path d=" M 8.99 0.00 L 11.44 0.00 C 23.93 8.97 36.11 18.37 48.40 27.61 C 51.73 30.09 56.16 28.65 60.00 29.00 L 60.00 31.00 C 56.17 31.35 51.73 29.91 48.41 32.39 C 36.13 41.65 23.95 51.03 11.46 60.00 L 8.99 60.00 C 9.01 57.00 8.99 54.00 9.00 51.00 C 6.00 51.01 3.00 50.99 0.00 51.00 L 0.00 49.00 C 3.00 49.01 6.00 48.98 9.00 49.00 C 9.00 36.33 9.00 23.67 9.00 11.00 C 6.00 11.01 3.00 10.99 0.00 11.00 L 0.00 9.00 C 3.00 9.01 6.00 8.98 9.00 9.00 C 8.99 6.00 9.01 3.00 8.99 0.00 Z" fill="#000000"/>
<path d=" M 11.44 0.00 L 60.00 0.00 L 60.00 29.00 C 56.16 28.65 51.73 30.09 48.40 27.61 C 36.11 18.37 23.93 8.97 11.44 0.00 Z" fill="#ffffff"/>
<path d=" M 11.00 1.72 C 23.24 11.47 35.93 20.69 48.51 30.00 C 35.93 39.31 23.24 48.53 11.00 58.28 C 11.00 39.43 11.00 20.57 11.00 1.72 Z" fill="#ffffff"/>
<path d=" M 0.00 11.00 C 3.00 10.99 6.00 11.01 9.00 11.00 C 9.00 23.67 9.00 36.33 9.00 49.00 C 6.00 48.98 3.00 49.01 0.00 49.00 L 0.00 11.00 Z" fill="#ffffff"/>
<path d=" M 15.40 16.95 C 17.84 16.26 19.97 15.01 21.00 12.58 C 21.00 13.40 20.98 15.03 20.98 15.85 C 21.88 15.95 23.69 16.15 24.60 16.26 C 23.48 16.70 22.32 17.01 21.13 17.21 C 21.03 18.05 20.82 19.73 20.72 20.57 C 20.25 19.43 19.94 18.26 19.78 17.03 C 18.32 17.04 16.86 17.01 15.40 16.95 Z" fill="#000000"/>
<path d=" M 48.41 32.39 C 51.73 29.91 56.17 31.35 60.00 31.00 L 60.00 60.00 L 11.46 60.00 C 23.95 51.03 36.13 41.65 48.41 32.39 Z" fill="#ffffff"/>
<path d=" M 15.09 47.30 C 16.71 46.88 19.99 46.22 20.90 47.70 C 19.29 48.12 16.01 48.78 15.09 47.30 Z" fill="#000000"/>
<path d=" M 0.00 51.00 C 3.00 50.99 6.00 51.01 9.00 51.00 C 8.99 54.00 9.01 57.00 8.99 60.00 L 0.00 60.00 L 0.00 51.00 Z" fill="#ffffff"/>
</g><g stroke-width="2px" stroke="black" transform="matrix(1,0,0,1,240,130)">
<metadata class="part">
<wtx:part xmlns:wtx="/home/niel/Desktop/webtronics">
    <wtx:pins>
		<wtx:analog>
		  <wtx:node y="10" x="0" index="1"/>
		  <wtx:node y="10" x="40" index="2"/>
		</wtx:analog>
    </wtx:pins>
    <wtx:id>r1</wtx:id>
    <wtx:type>r</wtx:type>
    <wtx:name>resistor</wtx:name>
    <wtx:category>resistors</wtx:category>
    <wtx:value>5k</wtx:value>
    <wtx:label>value-r1-3f1cc06fb3fec8</wtx:label>
    <wtx:spice/>
    <wtx:flip/>
    <wtx:model/>
</wtx:part>
</metadata>

    <path fill="none" id="path3444" d="M 5.1400289,10.973441 7.5009997,5.0436578 10.530362,14.908323 14.248435,4.3282724 18.324457,14.77488 21.761826,4.4617163 25.849828,14.589134 29.504786,4.5222528 33.128938,14.818135 35.33864,10.115602"/>
    <path id="path2159" d="m 0,10 5.424147,0"/>
    <path id="path2161" d="m 40,10 -5.459106,0"/>
    <rect visibility="hidden" id="rect2162" y="0" x="0" height="20" width="40"/>

  </g><text x="350" y="30" font-size="12" fill="black" stroke-width="0px" id="value-r3-15189ea00e2afa"><tspan dx="-14" dy="15">1K</tspan><tspan dx="0" dy="0">r3</tspan></text><g stroke-width="2px" stroke="black" transform="matrix(1,0,0,1,350,30)">
<metadata class="part">
<wtx:part xmlns:wtx="/home/niel/Desktop/webtronics">
    <wtx:pins>
		<wtx:analog>
		  <wtx:node y="10" x="0" index="1"/>
		  <wtx:node y="10" x="40" index="2"/>
		</wtx:analog>
    </wtx:pins>
    <wtx:id>r3</wtx:id>
    <wtx:type>r</wtx:type>
    <wtx:name>resistor</wtx:name>
    <wtx:category>resistors</wtx:category>
    <wtx:value>1K</wtx:value>
    <wtx:label>value-r3-15189ea00e2afa</wtx:label>
    <wtx:spice/>
    <wtx:flip/>
    <wtx:model/>
</wtx:part>
</metadata>

    <path fill="none" id="path3444" d="M 5.1400289,10.973441 7.5009997,5.0436578 10.530362,14.908323 14.248435,4.3282724 18.324457,14.77488 21.761826,4.4617163 25.849828,14.589134 29.504786,4.5222528 33.128938,14.818135 35.33864,10.115602"/>
    <path id="path2159" d="m 0,10 5.424147,0"/>
    <path id="path2161" d="m 40,10 -5.459106,0"/>
    <rect visibility="hidden" id="rect2162" y="0" x="0" height="20" width="40"/>

  </g><text x="70" y="39.9998779296875" font-size="12" fill="black" stroke-width="0px" id="value-v1-c1c34ba6c38fba"><tspan dx="0" dy="0">v1</tspan></text><g class="sinvoltagesource" connects="0,20;60,20" stroke-width="2px" stroke="#000" id="S" transform="matrix(-1,1.2246468525851679e-16,-1.2246468525851679e-16,-1,130,80)">
<metadata class="part">
<wtx:part xmlns:wtx="http://code.google.com/p/webtronics">
    <wtx:pins>
    <wtx:analog>
                <wtx:node y="20" x="0" index="1"/>
                <wtx:node y="20" x="60" index="2"/>
    </wtx:analog>
    </wtx:pins>
    <wtx:id>v1</wtx:id>
    <wtx:type>v</wtx:type>
    <wtx:name>sinvoltagesource</wtx:name>
    <wtx:category>sources</wtx:category>
    <wtx:value/>
    
    <wtx:offsetvoltage>0</wtx:offsetvoltage>
    <wtx:voltageamplitude>2</wtx:voltageamplitude>
    <wtx:frequency>50</wtx:frequency>
    <wtx:delaytime>0</wtx:delaytime>
    <wtx:dampingfactor>0</wtx:dampingfactor>

    <wtx:label>value-v1-c1c34ba6c38fba</wtx:label>
    <wtx:spice/>
    <wtx:flip/>
    <wtx:model/>
    <wtx:measure/>
</wtx:part>
</metadata>
  <path d="m50.381,19.923a20.203,19.698,0,1,1,-40.406,0,20.203,19.698,0,1,1,40.406,0z" fill="none" id="path2816"/>
  <path d="M10,20,0,20" id="path2818"/>
  <path d="m50,20,10,0" id="path2820"/>
  <path fill="none" stroke-width="1px" d="M15.763,19.492c10.699,23.004,16.424-16.073,27.966,0.169" id="path2819"/>
<text stroke-width="0px" font-size="12px" id="text5025" y="20" x="0">+</text>
<text stroke-width="0px" font-size="12px" id="text5029" y="15" x="53">_</text>

</g><text x="150" y="10" font-size="12" fill="black" stroke-width="0px" id="value-r2-d00b9e00ae98b1"><tspan dx="-14" dy="15">1K</tspan><tspan dx="0" dy="0">r2</tspan></text><g stroke-width="2px" stroke="black" transform="matrix(1,0,0,1,150,10)">
<metadata class="part">
<wtx:part xmlns:wtx="/home/niel/Desktop/webtronics">
    <wtx:pins>
		<wtx:analog>
		  <wtx:node y="10" x="0" index="1"/>
		  <wtx:node y="10" x="40" index="2"/>
		</wtx:analog>
    </wtx:pins>
    <wtx:id>r2</wtx:id>
    <wtx:type>r</wtx:type>
    <wtx:name>resistor</wtx:name>
    <wtx:category>resistors</wtx:category>
    <wtx:value>1K</wtx:value>
    <wtx:label>value-r2-d00b9e00ae98b1</wtx:label>
    <wtx:spice/>
    <wtx:flip/>
    <wtx:model/>
</wtx:part>
</metadata>

    <path fill="none" id="path3444" d="M 5.1400289,10.973441 7.5009997,5.0436578 10.530362,14.908323 14.248435,4.3282724 18.324457,14.77488 21.761826,4.4617163 25.849828,14.589134 29.504786,4.5222528 33.128938,14.818135 35.33864,10.115602"/>
    <path id="path2159" d="m 0,10 5.424147,0"/>
    <path id="path2161" d="m 40,10 -5.459106,0"/>
    <rect visibility="hidden" id="rect2162" y="0" x="0" height="20" width="40"/>

  </g><g class="ground" id="Gnd" stroke-width="2px" stroke="black" connects="10,0" transform="matrix(1,0,0,1,10,90)">
<metadata>
<wtx:part xmlns:wtx="/home/niel/Desktop/webtronics">
    <wtx:pins>
        <wtx:analog>
            <wtx:node y="0" x="10" index="1"/>
        </wtx:analog>
    </wtx:pins>
    <wtx:id>gnd</wtx:id>
    <wtx:type>gnd</wtx:type>
    <wtx:name>ground</wtx:name>
    <wtx:category>sources</wtx:category>
    <wtx:flip/>
    <wtx:value/>
    <wtx:label>value-gnd-7d7d75affc2417</wtx:label>
    <wtx:spice/>
    <wtx:model/>
</wtx:part>
</metadata>

    <path id="path3694" d="M 10,0 L 10,11"/>
    <path id="path3696" d="M 0.50000006,11.834153 L 19.671275,11.834153"/>
    <path id="path3698" d="M 2.6480823,14.5 L 17.732881,14.5"/>
    <path id="path3700" d="M 5.802873,17.5 L 14.648082,17.5"/>
  </g><text x="400" y="80" font-size="12" fill="black" stroke-width="0px" id="value-gnd-7d7d75affc2417"><tspan dx="0" dy="0">gnd</tspan></text><g class="ground" id="Gnd" stroke-width="2px" stroke="black" connects="10,0" transform="matrix(1,0,0,1,400,80)">
<metadata>
<wtx:part xmlns:wtx="/home/niel/Desktop/webtronics">
    <wtx:pins>
        <wtx:analog>
            <wtx:node y="0" x="10" index="1"/>
        </wtx:analog>
    </wtx:pins>
    <wtx:id>gnd</wtx:id>
    <wtx:type>gnd</wtx:type>
    <wtx:name>ground</wtx:name>
    <wtx:category>sources</wtx:category>
    <wtx:flip/>
    <wtx:value/>
    <wtx:label>value-gnd-7d7d75affc2417</wtx:label>
    <wtx:spice/>
    <wtx:model/>
</wtx:part>
</metadata>

    <path id="path3694" d="M 10,0 L 10,11"/>
    <path id="path3696" d="M 0.50000006,11.834153 L 19.671275,11.834153"/>
    <path id="path3698" d="M 2.6480823,14.5 L 17.732881,14.5"/>
    <path id="path3700" d="M 5.802873,17.5 L 14.648082,17.5"/>
  </g><text x="160" y="50" font-size="12" fill="black" stroke-width="0px" id="value-r4-d3ba135be30f06"><tspan dx="-14" dy="15">1K</tspan><tspan dx="0" dy="0">r4</tspan></text><g stroke-width="2px" stroke="black" transform="matrix(1,0,0,1,160,50)">
<metadata class="part">
<wtx:part xmlns:wtx="/home/niel/Desktop/webtronics">
    <wtx:pins>
		<wtx:analog>
		  <wtx:node y="10" x="0" index="1"/>
		  <wtx:node y="10" x="40" index="2"/>
		</wtx:analog>
    </wtx:pins>
    <wtx:id>r4</wtx:id>
    <wtx:type>r</wtx:type>
    <wtx:name>resistor</wtx:name>
    <wtx:category>resistors</wtx:category>
    <wtx:value>1K</wtx:value>
    <wtx:label>value-r4-d3ba135be30f06</wtx:label>
    <wtx:spice/>
    <wtx:flip/>
    <wtx:model/>
</wtx:part>
</metadata>

    <path fill="none" id="path3444" d="M 5.1400289,10.973441 7.5009997,5.0436578 10.530362,14.908323 14.248435,4.3282724 18.324457,14.77488 21.761826,4.4617163 25.849828,14.589134 29.504786,4.5222528 33.128938,14.818135 35.33864,10.115602"/>
    <path id="path2159" d="m 0,10 5.424147,0"/>
    <path id="path2161" d="m 40,10 -5.459106,0"/>
    <rect visibility="hidden" id="rect2162" y="0" x="0" height="20" width="40"/>

  </g><circle cx="20" cy="60" r="3" stroke="black" fill="black"/><text x="240" y="130" font-size="12" fill="black" stroke-width="0px" id="value-r1-3f1cc06fb3fec8"><tspan dx="-14" dy="15">5k</tspan><tspan dx="0" dy="0">r1</tspan></text><circle cx="224" cy="60" r="3" stroke="black" fill="black"/><circle cx="343" cy="40" r="3" stroke="black" fill="black"/><line x1="190" y1="20" x2="240" y2="20" stroke="black" stroke-width="2"/><line x1="200" y1="60" x2="240" y2="60" stroke="black" stroke-width="2"/><line x1="130" y1="60" x2="160" y2="60" stroke="black" stroke-width="2"/><line x1="150" y1="20" x2="20" y2="20" stroke="black" stroke-width="2"/><line x1="20" y1="20" x2="20" y2="90" stroke="black" stroke-width="2"/><line x1="20" y1="20" x2="20" y2="60" stroke="black" stroke-width="2"/><line x1="20" y1="60" x2="20" y2="90" stroke="black" stroke-width="2"/><line x1="70" y1="60" x2="20" y2="60" stroke="black" stroke-width="2"/><line x1="240" y1="140" x2="224" y2="140" stroke="black" stroke-width="2"/><line x1="200" y1="60" x2="224" y2="60" stroke="black" stroke-width="2"/><line x1="224" y1="60" x2="240" y2="60" stroke="black" stroke-width="2"/><line x1="224" y1="140" x2="224" y2="60" stroke="black" stroke-width="2"/><line x1="300" y1="40" x2="350" y2="40" stroke="black" stroke-width="2"/><line x1="390" y1="40" x2="408" y2="40" stroke="black" stroke-width="2"/><line x1="408" y1="40" x2="408" y2="80" stroke="black" stroke-width="2"/><line x1="408" y1="80" x2="410" y2="80" stroke="black" stroke-width="2"/><line x1="280" y1="140" x2="343" y2="140" stroke="black" stroke-width="2"/><line x1="300" y1="40" x2="343" y2="40" stroke="black" stroke-width="2"/><line x1="343" y1="40" x2="350" y2="40" stroke="black" stroke-width="2"/><line x1="343" y1="140" x2="343" y2="40" stroke="black" stroke-width="2"/></svg>