<?xml version='1.0' ?>
<!--Created by webtronics 0.1-->
<svg xmlns="http://www.w3.org/2000/svg" width="445px" height="478.9765625px"><rect x="0" y="0" fill="white" width="445px" height="478.9765625px"/><text x="224" y="151.4765625" font-size="12" fill="black" stroke-width="0px" id="value-q1-0795df96dc478f"><tspan dx="-16" dy="15">2n2222</tspan><tspan dx="0" dy="0">q1</tspan></text><g class="npn" stroke-width="2px" stroke="#000" id="Q" transform="matrix(1,0,0,1,224,151.4765625)">
<metadata class="part">
<wtx:part xmlns:wtx="/home/niel/Desktop/webtronics">
    <wtx:pins>
        <wtx:analog>
	  <!--spice order for transistors is collector base emmitter-->	  
            <wtx:node y="0" x="30" index="1"/>
            <wtx:node y="20" x="0" index="2"/>
            <wtx:node y="40" x="30" index="3"/>
        </wtx:analog>
    </wtx:pins>
    <wtx:id>q1</wtx:id>
    <wtx:type>q</wtx:type>
    <wtx:name>npn</wtx:name>
    <wtx:category>transistors</wtx:category>
    <wtx:value>2n2222</wtx:value>
    <wtx:label>value-q1-0795df96dc478f</wtx:label>
    <wtx:spice/>
    <wtx:flip>true</wtx:flip>
    <wtx:model>2n2222.lib</wtx:model>
</wtx:part>
</metadata>
 <rect visibility="hidden" id="rect2162" y="0" x="0" height="40" width="40"/>
  <path d="M15.508,31.531l0-23.068" id="path2178"/>
  <path fill="none" d="M30,0,30,7.6063,16,16.606" id="path2829"/>
  <path fill="none" d="m30,40,0-9-14-7" id="path2831"/>
  <path d="m25,31.606,2-4,3,4-5-0.000001z" id="path3613"/>
  <path d="m0,20,15,0" id="path3615"/>
 </g><text x="234" y="91.4765625" font-size="12" fill="black" stroke-width="0px" id="value-r1-5264d2c7bdbb59"><tspan dx="-14" dy="15">8.6k</tspan><tspan dx="0" dy="0">r1</tspan></text><g stroke-width="2px" stroke="black" transform="matrix(6.123234262925839e-17,1,-1,6.123234262925839e-17,264,81.4765625)">
<metadata class="part">
<wtx:part xmlns:wtx="/home/niel/Desktop/webtronics">
    <wtx:pins>
		<wtx:analog>
		  <wtx:node y="10" x="0" index="1"/>
		  <wtx:node y="10" x="40" index="2"/>
		</wtx:analog>
    </wtx:pins>
    <wtx:id>r1</wtx:id>
    <wtx:type>r</wtx:type>
    <wtx:name>resistor</wtx:name>
    <wtx:category>resistors</wtx:category>
    <wtx:value>8.6k</wtx:value>
    <wtx:label>value-r1-5264d2c7bdbb59</wtx:label>
    <wtx:spice/>
    <wtx:flip/>
    <wtx:model/>
</wtx:part>
</metadata>

    <path fill="none" id="path3444" d="M 5.1400289,10.973441 7.5009997,5.0436578 10.530362,14.908323 14.248435,4.3282724 18.324457,14.77488 21.761826,4.4617163 25.849828,14.589134 29.504786,4.5222528 33.128938,14.818135 35.33864,10.115602"/>
    <path id="path2159" d="m 0,10 5.424147,0"/>
    <path id="path2161" d="m 40,10 -5.459106,0"/>
    <rect visibility="hidden" id="rect2162" y="0" x="0" height="20" width="40"/>

  </g><text x="124" y="91.4765625" font-size="12" fill="black" stroke-width="0px" id="value-r2-4bb760a273c32d"><tspan dx="-14" dy="15">56k</tspan><tspan dx="0" dy="0">r2</tspan></text><g stroke-width="2px" stroke="black" transform="matrix(6.123234262925839e-17,1,-1,6.123234262925839e-17,154,81.4765625)">
<metadata class="part">
<wtx:part xmlns:wtx="/home/niel/Desktop/webtronics">
    <wtx:pins>
		<wtx:analog>
		  <wtx:node y="10" x="0" index="1"/>
		  <wtx:node y="10" x="40" index="2"/>
		</wtx:analog>
    </wtx:pins>
    <wtx:id>r2</wtx:id>
    <wtx:type>r</wtx:type>
    <wtx:name>resistor</wtx:name>
    <wtx:category>resistors</wtx:category>
    <wtx:value>56k</wtx:value>
    <wtx:label>value-r2-4bb760a273c32d</wtx:label>
    <wtx:spice/>
    <wtx:flip/>
    <wtx:model/>
</wtx:part>
</metadata>

    <path fill="none" id="path3444" d="M 5.1400289,10.973441 7.5009997,5.0436578 10.530362,14.908323 14.248435,4.3282724 18.324457,14.77488 21.761826,4.4617163 25.849828,14.589134 29.504786,4.5222528 33.128938,14.818135 35.33864,10.115602"/>
    <path id="path2159" d="m 0,10 5.424147,0"/>
    <path id="path2161" d="m 40,10 -5.459106,0"/>
    <rect visibility="hidden" id="rect2162" y="0" x="0" height="20" width="40"/>

  </g><text x="124" y="231.4765625" font-size="12" fill="black" stroke-width="0px" id="value-r3-3dfc18ca4e603e"><tspan dx="-14" dy="15">8.2k</tspan><tspan dx="0" dy="0">r3</tspan></text><g stroke-width="2px" stroke="black" transform="matrix(6.123234262925839e-17,1,-1,6.123234262925839e-17,154,221.4765625)">
<metadata class="part">
<wtx:part xmlns:wtx="/home/niel/Desktop/webtronics">
    <wtx:pins>
		<wtx:analog>
		  <wtx:node y="10" x="0" index="1"/>
		  <wtx:node y="10" x="40" index="2"/>
		</wtx:analog>
    </wtx:pins>
    <wtx:id>r3</wtx:id>
    <wtx:type>r</wtx:type>
    <wtx:name>resistor</wtx:name>
    <wtx:category>resistors</wtx:category>
    <wtx:value>8.2k</wtx:value>
    <wtx:label>value-r3-3dfc18ca4e603e</wtx:label>
    <wtx:spice/>
    <wtx:flip/>
    <wtx:model/>
</wtx:part>
</metadata>

    <path fill="none" id="path3444" d="M 5.1400289,10.973441 7.5009997,5.0436578 10.530362,14.908323 14.248435,4.3282724 18.324457,14.77488 21.761826,4.4617163 25.849828,14.589134 29.504786,4.5222528 33.128938,14.818135 35.33864,10.115602"/>
    <path id="path2159" d="m 0,10 5.424147,0"/>
    <path id="path2161" d="m 40,10 -5.459106,0"/>
    <rect visibility="hidden" id="rect2162" y="0" x="0" height="20" width="40"/>

  </g><text x="234" y="231.4765625" font-size="12" fill="black" stroke-width="0px" id="value-r4-eb528862859175"><tspan dx="-14" dy="15">1.5k</tspan><tspan dx="0" dy="0">r4</tspan></text><g stroke-width="2px" stroke="black" transform="matrix(6.123234262925839e-17,1,-1,6.123234262925839e-17,264,221.4765625)">
<metadata class="part">
<wtx:part xmlns:wtx="/home/niel/Desktop/webtronics">
    <wtx:pins>
		<wtx:analog>
		  <wtx:node y="10" x="0" index="1"/>
		  <wtx:node y="10" x="40" index="2"/>
		</wtx:analog>
    </wtx:pins>
    <wtx:id>r4</wtx:id>
    <wtx:type>r</wtx:type>
    <wtx:name>resistor</wtx:name>
    <wtx:category>resistors</wtx:category>
    <wtx:value>1.5k</wtx:value>
    <wtx:label>value-r4-eb528862859175</wtx:label>
    <wtx:spice/>
    <wtx:flip/>
    <wtx:model/>
</wtx:part>
</metadata>

    <path fill="none" id="path3444" d="M 5.1400289,10.973441 7.5009997,5.0436578 10.530362,14.908323 14.248435,4.3282724 18.324457,14.77488 21.761826,4.4617163 25.849828,14.589134 29.504786,4.5222528 33.128938,14.818135 35.33864,10.115602"/>
    <path id="path2159" d="m 0,10 5.424147,0"/>
    <path id="path2161" d="m 40,10 -5.459106,0"/>
    <rect visibility="hidden" id="rect2162" y="0" x="0" height="20" width="40"/>

  </g><text x="314" y="231.4765625" font-size="12" fill="black" stroke-width="0px" id="value-c1-66207ab8444401"><tspan dx="-15" dy="15">20u</tspan><tspan dx="0" dy="0">c1</tspan></text><g class="capacitor" id="C" stroke-width="2px" stroke="black" connects="0,10;30,10" transform="matrix(6.123234262925839e-17,1,-1,6.123234262925839e-17,344,231.4765625)">
<metadata class="part">
<wtx:part xmlns:wtx="/home/niel/Desktop/webtronics">
    <wtx:pins>
		<wtx:analog>
			<wtx:node y="10" x="0" index="1"/>
			<wtx:node y="10" x="30" index="2"/>
		</wtx:analog>
    </wtx:pins>
    <wtx:id>c1</wtx:id>
    <wtx:type>c</wtx:type>
    <wtx:name>capacitor</wtx:name>
    <wtx:category>capacitors</wtx:category>
    <wtx:value>20u</wtx:value>
    <wtx:label>value-c1-66207ab8444401</wtx:label>
    <wtx:spice/>
    <wtx:flip/>
    <wtx:model/>
</wtx:part>
</metadata>
    <path id="path3412" d="M 10,0 10,20"/>
    <path id="path3414" d="m 20,0 0,20"/>
    <path id="path3420" d="m 20,10 10,0"/>
    <path id="path3422" d="M 10,10 0,10"/>
  </g><text x="214" y="21.4764404296875" font-size="12" fill="black" stroke-width="0px" id="value-v1-79ad164a1e1223"><tspan dx="-15" dy="15">22</tspan><tspan dx="0" dy="0">v1</tspan></text><g class="battery" id="v" stroke-width="2px" stroke="black" transform="matrix(1,0,0,1,214,21.4765625)">
<metadata class="part">
<wtx:part xmlns:wtx="/home/niel/Desktop/webtronics">
    <wtx:pins>
    <wtx:analog>
        <wtx:node y="10" x="0" index="1"/>
        <wtx:node y="10" x="50" index="2"/>
    </wtx:analog>
    </wtx:pins>
    <wtx:id>v1</wtx:id>
    <wtx:type>v</wtx:type>
    <wtx:name>battery</wtx:name>
    <wtx:category>sources</wtx:category>
    <wtx:value>22</wtx:value>
    <wtx:label>value-v1-79ad164a1e1223</wtx:label>
    <wtx:spice/>
    <wtx:flip/>
    <wtx:model/>
</wtx:part>
</metadata>
      <path id="path5009" d="M 0,10 L 17,10"/>
      <path id="path5019" d="M 32,10 L 50,10"/>
      <path id="path5011" d="M 17.836609,0.68314333 L 17.718673,19.199113"/>
      <path id="path5013" d="M 22.436119,3.7494823 L 22.436119,15.071349"/>
      <path id="path5015" d="M 27.507371,0.68314333 L 27.507371,19.552922"/>
      <path id="path5017" d="M 31.753072,3.8674183 L 31.635136,15.425157"/>
      <text stroke-width="0px" font-size="12px" id="text5025" y="8.5261526" x="8.2167969">+</text>
      <text stroke-width="0px" font-size="12px" id="text5029" y="0.5234375" x="34.111794">_</text>
  </g><text x="364" y="331.4765625" font-size="12" fill="black" stroke-width="0px" id="value-c2-47941676b1ab43"><tspan dx="-15" dy="15">1500p</tspan><tspan dx="0" dy="0">c2</tspan></text><g class="capacitor" id="C" stroke-width="2px" stroke="black" connects="0,10;30,10" transform="matrix(1,0,0,1,364,331.4765625)">
<metadata class="part">
<wtx:part xmlns:wtx="/home/niel/Desktop/webtronics">
    <wtx:pins>
		<wtx:analog>
			<wtx:node y="10" x="0" index="1"/>
			<wtx:node y="10" x="30" index="2"/>
		</wtx:analog>
    </wtx:pins>
    <wtx:id>c2</wtx:id>
    <wtx:type>c</wtx:type>
    <wtx:name>capacitor</wtx:name>
    <wtx:category>capacitors</wtx:category>
    <wtx:value>1500p</wtx:value>
    <wtx:label>value-c2-47941676b1ab43</wtx:label>
    <wtx:spice/>
    <wtx:flip/>
    <wtx:model/>
</wtx:part>
</metadata>
    <path id="path3412" d="M 10,0 10,20"/>
    <path id="path3414" d="m 20,0 0,20"/>
    <path id="path3420" d="m 20,10 10,0"/>
    <path id="path3422" d="M 10,10 0,10"/>
  </g><text x="234" y="331.4765625" font-size="12" fill="black" stroke-width="0px" id="value-c3-16aad92f36c54e"><tspan dx="-15" dy="15">1500p</tspan><tspan dx="0" dy="0">c3</tspan></text><g class="capacitor" id="C" stroke-width="2px" stroke="black" connects="0,10;30,10" transform="matrix(1,0,0,1,234,331.4765625)">
<metadata class="part">
<wtx:part xmlns:wtx="/home/niel/Desktop/webtronics">
    <wtx:pins>
		<wtx:analog>
			<wtx:node y="10" x="0" index="1"/>
			<wtx:node y="10" x="30" index="2"/>
		</wtx:analog>
    </wtx:pins>
    <wtx:id>c3</wtx:id>
    <wtx:type>c</wtx:type>
    <wtx:name>capacitor</wtx:name>
    <wtx:category>capacitors</wtx:category>
    <wtx:value>1500p</wtx:value>
    <wtx:label>value-c3-16aad92f36c54e</wtx:label>
    <wtx:spice/>
    <wtx:flip/>
    <wtx:model/>
</wtx:part>
</metadata>
    <path id="path3412" d="M 10,0 10,20"/>
    <path id="path3414" d="m 20,0 0,20"/>
    <path id="path3420" d="m 20,10 10,0"/>
    <path id="path3422" d="M 10,10 0,10"/>
  </g><text x="114" y="331.4765625" font-size="12" fill="black" stroke-width="0px" id="value-c4-bb738143f4a65c"><tspan dx="-15" dy="15">1500p</tspan><tspan dx="0" dy="0">c4</tspan></text><g class="capacitor" id="C" stroke-width="2px" stroke="black" connects="0,10;30,10" transform="matrix(1,0,0,1,114,331.4765625)">
<metadata class="part">
<wtx:part xmlns:wtx="/home/niel/Desktop/webtronics">
    <wtx:pins>
		<wtx:analog>
			<wtx:node y="10" x="0" index="1"/>
			<wtx:node y="10" x="30" index="2"/>
		</wtx:analog>
    </wtx:pins>
    <wtx:id>c4</wtx:id>
    <wtx:type>c</wtx:type>
    <wtx:name>capacitor</wtx:name>
    <wtx:category>capacitors</wtx:category>
    <wtx:value>1500p</wtx:value>
    <wtx:label>value-c4-bb738143f4a65c</wtx:label>
    <wtx:spice/>
    <wtx:flip/>
    <wtx:model/>
</wtx:part>
</metadata>
    <path id="path3412" d="M 10,0 10,20"/>
    <path id="path3414" d="m 20,0 0,20"/>
    <path id="path3420" d="m 20,10 10,0"/>
    <path id="path3422" d="M 10,10 0,10"/>
  </g><text x="164" y="371.4765625" font-size="12" fill="black" stroke-width="0px" id="value-r5-ea221e7e9e0a22"><tspan dx="-14" dy="15">3k</tspan><tspan dx="0" dy="0">r5</tspan></text><g stroke-width="2px" stroke="black" transform="matrix(6.123234262925839e-17,1,-1,6.123234262925839e-17,194,361.4765625)">
<metadata class="part">
<wtx:part xmlns:wtx="/home/niel/Desktop/webtronics">
    <wtx:pins>
		<wtx:analog>
		  <wtx:node y="10" x="0" index="1"/>
		  <wtx:node y="10" x="40" index="2"/>
		</wtx:analog>
    </wtx:pins>
    <wtx:id>r5</wtx:id>
    <wtx:type>r</wtx:type>
    <wtx:name>resistor</wtx:name>
    <wtx:category>resistors</wtx:category>
    <wtx:value>3k</wtx:value>
    <wtx:label>value-r5-ea221e7e9e0a22</wtx:label>
    <wtx:spice/>
    <wtx:flip/>
    <wtx:model/>
</wtx:part>
</metadata>

    <path fill="none" id="path3444" d="M 5.1400289,10.973441 7.5009997,5.0436578 10.530362,14.908323 14.248435,4.3282724 18.324457,14.77488 21.761826,4.4617163 25.849828,14.589134 29.504786,4.5222528 33.128938,14.818135 35.33864,10.115602"/>
    <path id="path2159" d="m 0,10 5.424147,0"/>
    <path id="path2161" d="m 40,10 -5.459106,0"/>
    <rect visibility="hidden" id="rect2162" y="0" x="0" height="20" width="40"/>

  </g><text x="294" y="371.4765625" font-size="12" fill="black" stroke-width="0px" id="value-r6-9568f30b023913"><tspan dx="-14" dy="15">3k</tspan><tspan dx="0" dy="0">r6</tspan></text><g stroke-width="2px" stroke="black" transform="matrix(6.123234262925839e-17,1,-1,6.123234262925839e-17,324,361.4765625)">
<metadata class="part">
<wtx:part xmlns:wtx="/home/niel/Desktop/webtronics">
    <wtx:pins>
		<wtx:analog>
		  <wtx:node y="10" x="0" index="1"/>
		  <wtx:node y="10" x="40" index="2"/>
		</wtx:analog>
    </wtx:pins>
    <wtx:id>r6</wtx:id>
    <wtx:type>r</wtx:type>
    <wtx:name>resistor</wtx:name>
    <wtx:category>resistors</wtx:category>
    <wtx:value>3k</wtx:value>
    <wtx:label>value-r6-9568f30b023913</wtx:label>
    <wtx:spice/>
    <wtx:flip/>
    <wtx:model/>
</wtx:part>
</metadata>

    <path fill="none" id="path3444" d="M 5.1400289,10.973441 7.5009997,5.0436578 10.530362,14.908323 14.248435,4.3282724 18.324457,14.77488 21.761826,4.4617163 25.849828,14.589134 29.504786,4.5222528 33.128938,14.818135 35.33864,10.115602"/>
    <path id="path2159" d="m 0,10 5.424147,0"/>
    <path id="path2161" d="m 40,10 -5.459106,0"/>
    <rect visibility="hidden" id="rect2162" y="0" x="0" height="20" width="40"/>

  </g><text x="24" y="331.4765625" font-size="12" fill="black" stroke-width="0px" id="value-r7-6888d0121fd277"><tspan dx="-14" dy="15">3k</tspan><tspan dx="0" dy="0">r7</tspan></text><g stroke-width="2px" stroke="black" transform="matrix(1,0,0,1,24,331.4765625)">
<metadata class="part">
<wtx:part xmlns:wtx="/home/niel/Desktop/webtronics">
    <wtx:pins>
		<wtx:analog>
		  <wtx:node y="10" x="0" index="1"/>
		  <wtx:node y="10" x="40" index="2"/>
		</wtx:analog>
    </wtx:pins>
    <wtx:id>r7</wtx:id>
    <wtx:type>r</wtx:type>
    <wtx:name>resistor</wtx:name>
    <wtx:category>resistors</wtx:category>
    <wtx:value>3k</wtx:value>
    <wtx:label>value-r7-6888d0121fd277</wtx:label>
    <wtx:spice/>
    <wtx:flip/>
    <wtx:model/>
</wtx:part>
</metadata>

    <path fill="none" id="path3444" d="M 5.1400289,10.973441 7.5009997,5.0436578 10.530362,14.908323 14.248435,4.3282724 18.324457,14.77488 21.761826,4.4617163 25.849828,14.589134 29.504786,4.5222528 33.128938,14.818135 35.33864,10.115602"/>
    <path id="path2159" d="m 0,10 5.424147,0"/>
    <path id="path2161" d="m 40,10 -5.459106,0"/>
    <rect visibility="hidden" id="rect2162" y="0" x="0" height="20" width="40"/>

  </g><text x="184" y="291.4764404296875" font-size="12" fill="black" stroke-width="0px" id="value-gnd-0f9ab49f0bb6e5"><tspan dx="0" dy="0">gnd</tspan></text><g class="ground" id="Gnd" stroke-width="2px" stroke="black" connects="10,0" transform="matrix(1,0,0,1,184,291.4765625)">
<metadata>
<wtx:part xmlns:wtx="/home/niel/Desktop/webtronics">
    <wtx:pins>
        <wtx:analog>
            <wtx:node y="0" x="10" index="1"/>
        </wtx:analog>
    </wtx:pins>
    <wtx:id>gnd</wtx:id>
    <wtx:type>gnd</wtx:type>
    <wtx:name>ground</wtx:name>
    <wtx:category>sources</wtx:category>
    <wtx:flip/>
    <wtx:value/>
    <wtx:label>value-gnd-0f9ab49f0bb6e5</wtx:label>
    <wtx:spice/>
    <wtx:model/>
</wtx:part>
</metadata>

    <path id="path3694" d="M 10,0 L 10,11"/>
    <path id="path3696" d="M 0.50000006,11.834153 L 19.671275,11.834153"/>
    <path id="path3698" d="M 2.6480823,14.5 L 17.732881,14.5"/>
    <path id="path3700" d="M 5.802873,17.5 L 14.648082,17.5"/>
  </g><text x="294" y="31.4764404296875" font-size="12" fill="black" stroke-width="0px" id="value-gnd-7d0a5be3bd403d"><tspan dx="0" dy="0">gnd</tspan></text><g class="ground" id="Gnd" stroke-width="2px" stroke="black" connects="10,0" transform="matrix(1,0,0,1,294,31.4765625)">
<metadata>
<wtx:part xmlns:wtx="/home/niel/Desktop/webtronics">
    <wtx:pins>
        <wtx:analog>
            <wtx:node y="0" x="10" index="1"/>
        </wtx:analog>
    </wtx:pins>
    <wtx:id>gnd</wtx:id>
    <wtx:type>gnd</wtx:type>
    <wtx:name>ground</wtx:name>
    <wtx:category>sources</wtx:category>
    <wtx:flip/>
    <wtx:value/>
    <wtx:label>value-gnd-7d0a5be3bd403d</wtx:label>
    <wtx:spice/>
    <wtx:model/>
</wtx:part>
</metadata>

    <path id="path3694" d="M 10,0 L 10,11"/>
    <path id="path3696" d="M 0.50000006,11.834153 L 19.671275,11.834153"/>
    <path id="path3698" d="M 2.6480823,14.5 L 17.732881,14.5"/>
    <path id="path3700" d="M 5.802873,17.5 L 14.648082,17.5"/>
  </g><text x="234" y="451.4764404296875" font-size="12" fill="black" stroke-width="0px" id="value-gnd-2ea37da5a1d6bf"><tspan dx="0" dy="0">gnd</tspan></text><g class="ground" id="Gnd" stroke-width="2px" stroke="black" connects="10,0" transform="matrix(1,0,0,1,234,451.4765625)">
<metadata>
<wtx:part xmlns:wtx="/home/niel/Desktop/webtronics">
    <wtx:pins>
        <wtx:analog>
            <wtx:node y="0" x="10" index="1"/>
        </wtx:analog>
    </wtx:pins>
    <wtx:id>gnd</wtx:id>
    <wtx:type>gnd</wtx:type>
    <wtx:name>ground</wtx:name>
    <wtx:category>sources</wtx:category>
    <wtx:flip/>
    <wtx:value/>
    <wtx:label>value-gnd-2ea37da5a1d6bf</wtx:label>
    <wtx:spice/>
    <wtx:model/>
</wtx:part>
</metadata>

    <path id="path3694" d="M 10,0 L 10,11"/>
    <path id="path3696" d="M 0.50000006,11.834153 L 19.671275,11.834153"/>
    <path id="path3698" d="M 2.6480823,14.5 L 17.732881,14.5"/>
    <path id="path3700" d="M 5.802873,17.5 L 14.648082,17.5"/>
  </g><circle cx="194" cy="261.4765625" r="3" stroke="black" fill="black"/><circle cx="254" cy="210.4765625" r="3" stroke="black" fill="black"/><circle cx="245" cy="261.4765625" r="3" stroke="black" fill="black"/><circle cx="254" cy="137.4765625" r="3" stroke="black" fill="black"/><circle cx="184" cy="341.4765625" r="3" stroke="black" fill="black"/><circle cx="314" cy="341.4765625" r="3" stroke="black" fill="black"/><circle cx="244" cy="431.4765625" r="3" stroke="black" fill="black"/><circle cx="144" cy="191.4765625" r="3" stroke="black" fill="black"/><circle cx="144" cy="171.4765625" r="3" stroke="black" fill="black"/><circle cx="181" cy="81.4765625" r="3" stroke="black" fill="black"/><line x1="144" y1="81.4765625" x2="254" y2="81.4765625" stroke="black" stroke-width="2"/><line x1="144" y1="261.4765625" x2="254" y2="261.4765625" stroke="black" stroke-width="2"/><line x1="144" y1="261.4765625" x2="194" y2="261.4765625" stroke="black" stroke-width="2"/><line x1="194" y1="261.4765625" x2="254" y2="261.4765625" stroke="black" stroke-width="2"/><line x1="194" y1="291.4765625" x2="194" y2="261.4765625" stroke="black" stroke-width="2"/><line x1="144" y1="221.4765625" x2="144" y2="121.4765625" stroke="black" stroke-width="2"/><line x1="254" y1="151.4765625" x2="254" y2="121.4765625" stroke="black" stroke-width="2"/><line x1="254" y1="191.4765625" x2="254" y2="221.4765625" stroke="black" stroke-width="2"/><line x1="334" y1="231.4765625" x2="334" y2="210.4765625" stroke="black" stroke-width="2"/><line x1="254" y1="191.4765625" x2="254" y2="210.4765625" stroke="black" stroke-width="2"/><line x1="254" y1="210.4765625" x2="254" y2="221.4765625" stroke="black" stroke-width="2"/><line x1="334" y1="210.4765625" x2="254" y2="210.4765625" stroke="black" stroke-width="2"/><line x1="334" y1="261.4765625" x2="334" y2="281.4765625" stroke="black" stroke-width="2"/><line x1="334" y1="281.4765625" x2="245" y2="281.4765625" stroke="black" stroke-width="2"/><line x1="194" y1="261.4765625" x2="245" y2="261.4765625" stroke="black" stroke-width="2"/><line x1="245" y1="261.4765625" x2="254" y2="261.4765625" stroke="black" stroke-width="2"/><line x1="245" y1="281.4765625" x2="245" y2="261.4765625" stroke="black" stroke-width="2"/><line x1="394" y1="341.4765625" x2="434" y2="341.4765625" stroke="black" stroke-width="2"/><line x1="254" y1="151.4765625" x2="254" y2="137.4765625" stroke="black" stroke-width="2"/><line x1="254" y1="137.4765625" x2="254" y2="121.4765625" stroke="black" stroke-width="2"/><line x1="434" y1="341.4765625" x2="434" y2="137.4765625" stroke="black" stroke-width="2"/><line x1="434" y1="137.4765625" x2="254" y2="137.4765625" stroke="black" stroke-width="2"/><line x1="364" y1="341.4765625" x2="264" y2="341.4765625" stroke="black" stroke-width="2"/><line x1="234" y1="341.4765625" x2="144" y2="341.4765625" stroke="black" stroke-width="2"/><line x1="234" y1="341.4765625" x2="184" y2="341.4765625" stroke="black" stroke-width="2"/><line x1="184" y1="341.4765625" x2="144" y2="341.4765625" stroke="black" stroke-width="2"/><line x1="184" y1="361.4765625" x2="184" y2="341.4765625" stroke="black" stroke-width="2"/><line x1="364" y1="341.4765625" x2="314" y2="341.4765625" stroke="black" stroke-width="2"/><line x1="314" y1="341.4765625" x2="264" y2="341.4765625" stroke="black" stroke-width="2"/><line x1="314" y1="361.4765625" x2="314" y2="341.4765625" stroke="black" stroke-width="2"/><line x1="184" y1="401.4765625" x2="184" y2="431.4765625" stroke="black" stroke-width="2"/><line x1="184" y1="431.4765625" x2="314" y2="431.4765625" stroke="black" stroke-width="2"/><line x1="314" y1="431.4765625" x2="314" y2="401.4765625" stroke="black" stroke-width="2"/><line x1="184" y1="431.4765625" x2="244" y2="431.4765625" stroke="black" stroke-width="2"/><line x1="244" y1="431.4765625" x2="314" y2="431.4765625" stroke="black" stroke-width="2"/><line x1="244" y1="451.4765625" x2="244" y2="431.4765625" stroke="black" stroke-width="2"/><line x1="114" y1="341.4765625" x2="64" y2="341.4765625" stroke="black" stroke-width="2"/><line x1="24" y1="341.4765625" x2="24" y2="191.4765625" stroke="black" stroke-width="2"/><line x1="144" y1="221.4765625" x2="144" y2="191.4765625" stroke="black" stroke-width="2"/><line x1="144" y1="191.4765625" x2="144" y2="121.4765625" stroke="black" stroke-width="2"/><line x1="24" y1="191.4765625" x2="144" y2="191.4765625" stroke="black" stroke-width="2"/><line x1="144" y1="191.4765625" x2="144" y2="171.4765625" stroke="black" stroke-width="2"/><line x1="144" y1="171.4765625" x2="144" y2="121.4765625" stroke="black" stroke-width="2"/><line x1="224" y1="171.4765625" x2="144" y2="171.4765625" stroke="black" stroke-width="2"/><line x1="214" y1="31.4765625" x2="181" y2="31.4765625" stroke="black" stroke-width="2"/><line x1="144" y1="81.4765625" x2="181" y2="81.4765625" stroke="black" stroke-width="2"/><line x1="181" y1="81.4765625" x2="254" y2="81.4765625" stroke="black" stroke-width="2"/><line x1="181" y1="31.4765625" x2="181" y2="81.4765625" stroke="black" stroke-width="2"/><line x1="264" y1="31.4765625" x2="304" y2="31.4765625" stroke="black" stroke-width="2"/></svg>