<svg width="100" height="64" xmlns="http://www.w3.org/2000/svg">
  <g
  stroke='black'
  stroke-width='2px' >

<metadata class="part" >
    <wtx:part xmlns:wtx="http://code.google.com/p/webtronics" >
    <wtx:pins>
        <wtx:analog>
            <wtx:node index="3" x="101" y="18" />
            <wtx:node index="4" x="101" y="44" />
            <wtx:node index="1" x="3" y="19" />
            <wtx:node index="2" x="3" y="45" />
          
        </wtx:analog>
    </wtx:pins>
    <wtx:id>a</wtx:id>
    <wtx:type>a</wtx:type>
    <wtx:name>oneshot</wtx:name>
    <wtx:category>analogmodels</wtx:category>

        <wtx:cntlarr></wtx:cntlarr>
    <wtx:pwarr></wtx:pwarr>
    <wtx:clktrig></wtx:clktrig>
    <wtx:ptrig></wtx:ptrig>
    <wtx:outlow></wtx:outlow>
    <wtx:outhigh></wtx:outhigh>
    <wtx:rdelay></wtx:rdelay>
    <wtx:fdelay></wtx:fdelay>


    <wtx:flip></wtx:flip>
    <wtx:value></wtx:value>
    <wtx:label></wtx:label>
    <wtx:spice></wtx:spice>
    <wtx:model></wtx:model>
    </wtx:part>
</metadata>
  <rect id="svg_35" height="60" width="40" y="1.5" x="30.5" stroke-width="1.5" stroke="#000" fill="#fff"/>
  <line stroke-linecap="null" stroke-linejoin="null" id="svg_37" y2="18.5" x2="100.5" y1="18.5" x1="70.5" fill-opacity="null" stroke-opacity="null" stroke-width="1.5" stroke="#000" fill="none"/>
  <line stroke-linecap="null" stroke-linejoin="null" id="svg_38" y2="44.5" x2="100.5" y1="44.5" x1="70.5" fill-opacity="null" stroke-opacity="null" stroke-width="1.5" stroke="#000" fill="none"/>
  <line stroke-linecap="null" stroke-linejoin="null" id="svg_39" y2="18.5" x2="29.5" y1="18.5" x1="-0.5" fill-opacity="null" stroke-opacity="null" stroke-width="1.5" stroke="#000" fill="none"/>
  <line stroke-linecap="null" stroke-linejoin="null" id="svg_40" y2="44.5" x2="30.5" y1="44.5" x1="0.5" fill-opacity="null" stroke-opacity="null" stroke-width="1.5" stroke="#000" fill="none"/>
  <line stroke-linecap="null" stroke-linejoin="null" id="svg_41" y2="39.5" x2="56.5" y1="39.5" x1="55.5" fill-opacity="null" stroke-opacity="null" stroke-width="1.5" stroke="#000" fill="none"/>
  <text style="cursor: move;" xml:space="preserve" text-anchor="start" font-family="Helvetica, Arial, sans-serif" font-size="10" id="svg_42" y="21.5" x="35.5" fill-opacity="null" stroke-opacity="null" stroke-width="0" stroke="#000" fill="#000000">One</text>
  <text style="cursor: move;" xml:space="preserve" text-anchor="start" font-family="Helvetica, Arial, sans-serif" font-size="10" id="svg_43" y="36.5" x="35.5" fill-opacity="null" stroke-opacity="null" stroke-width="0" stroke="#000" fill="#000000">shot</text>
  <path d="m31.018559,39.3148c0.185184,0.185184 0.555553,0.185184 0.740738,0.370369c0.370369,0.370369 0.522915,0.645599 0.925926,0.740738c0.180229,0.042545 0.239426,0.054241 0.370369,0.185184c0.130943,0.130943 0.19928,0.114315 0.370369,0.185184c0.241959,0.100224 0.239426,0.239429 0.370369,0.370373c0.130943,0.130943 0.239426,0.054241 0.370369,0.185184c0.130943,0.130943 0.42461,-0.130947 0.555557,0c0.130943,0.130943 0.128414,0.270149 0.370369,0.370369c0.171089,0.070866 0.239426,0.054241 0.370369,0.185184c0.130943,0.130943 0.42461,0.054241 0.555553,0.185184c0.130943,0.130943 0.128414,0.270149 0.370369,0.370369c0.171089,0.070866 0.213379,0.043449 0.555557,0.185184c0.241955,0.10022 0.152546,0.460419 0.555553,0.555557c0.360462,0.085094 0.370369,0.185184 0.555553,0.370369c0.185184,0.185184 0.370369,0.370369 0.370369,0.555553c0,0.185184 0.185184,0.185184 0.370369,0.185184l0,0.185184l0.185184,0" id="svg_48" fill-opacity="null" stroke-opacity="null" stroke-width="1.5" stroke="#000" fill="none"/>
  <path d="m30.833372,49.499962c0,-0.185184 0.185186,-0.185184 0.370371,-0.185184c0.185184,0 0.199282,-0.114319 0.370369,-0.185184c0.241955,-0.10022 0.424608,-0.42461 0.555553,-0.555553c0.130943,-0.130943 0.498787,-0.270149 0.740742,-0.370369c0.171089,-0.070866 0.370369,0 0.555553,-0.185184c0.185184,-0.185184 0.370369,-0.185184 0.555553,-0.370369c0.185184,-0.185184 0.313595,-0.270149 0.555553,-0.370373c0.171093,-0.070869 0.199284,-0.114319 0.370373,-0.185184c0.241955,-0.10022 0.27301,-0.212841 0.370369,-0.370369c0.217697,-0.352242 0.555553,-0.185184 0.740738,-0.370369c0.185184,-0.185184 0.343098,-0.402424 0.555553,-0.555553c0.335926,-0.242123 0.555557,-0.185184 0.740742,-0.370369c0.185184,-0.185184 0.523041,-0.018127 0.740738,-0.370373c0.097355,-0.157528 0.185184,-0.185184 0.185184,-0.370369l0.185184,0l0.185184,-0.185184l0,-0.185184" id="svg_49" fill-opacity="null" stroke-opacity="null" stroke-width="1.5" stroke="#000" fill="none"/>
 </g>
</svg>